<svg width="1728" height="7444" viewBox="0 0 1728 7444" fill="none" xmlns="http://www.w3.org/2000/svg">
<g clip-path="url(#clip0_1089_193)">
<rect width="1728" height="7444" fill="white"/>
<g filter="url(#filter0_f_1089_193)">
<path d="M1809.02 1158.73C1894.66 1153.32 2022.92 1193.09 2060.92 1128.88C2105.88 1052.92 1969.37 974.924 1967.93 890.229C1967.04 838.14 2059.35 805.771 2054.53 753.832C2049.79 702.806 1974.52 677.826 1944.08 633.381C1910.33 584.11 1927.44 502.708 1865.92 478.45C1802.29 453.365 1734.81 523.003 1664.43 523.12C1600.74 523.225 1542.45 459.399 1483.3 479.082C1424.16 498.762 1416.2 567.234 1388.36 614.98C1366.38 652.679 1371.03 701.045 1336.24 731.303C1263.59 794.474 1114.42 797.707 1082.37 881.043C1057.06 946.862 1147.2 1011.69 1211.72 1055.1C1272.36 1095.9 1356.38 1096.52 1430.89 1115.52C1491.57 1131 1549.22 1150.04 1612.08 1157.22C1677.95 1164.74 1742.73 1162.91 1809.02 1158.73Z" fill="#FF4D9C" fill-opacity="0.25"/>
</g>
<g filter="url(#filter1_f_1089_193)">
<path d="M399.021 2064.73C484.662 2059.32 612.917 2099.09 650.918 2034.88C695.876 1958.92 559.374 1880.92 557.932 1796.23C557.045 1744.14 649.355 1711.77 644.531 1659.83C639.792 1608.81 564.52 1583.83 534.079 1539.38C500.333 1490.11 517.441 1408.71 455.917 1384.45C392.293 1359.36 324.806 1429 254.425 1429.12C190.736 1429.22 132.451 1365.4 73.2996 1385.08C14.1556 1404.76 6.19852 1473.23 -21.6407 1520.98C-43.622 1558.68 -38.9657 1607.05 -73.7635 1637.3C-146.415 1700.47 -295.584 1703.71 -327.631 1787.04C-352.941 1852.86 -262.801 1917.69 -198.281 1961.1C-137.641 2001.9 -53.6249 2002.52 20.8905 2021.52C81.5663 2037 139.22 2056.04 202.084 2063.22C267.951 2070.74 332.729 2068.91 399.021 2064.73Z" fill="#FF4D9C" fill-opacity="0.25"/>
</g>
<g opacity="0.75" filter="url(#filter2_f_1089_193)">
<path d="M1177.34 -250.279C1210.86 -222.703 1239.08 -190.469 1258.69 -153.255C1275.81 -120.785 1277.97 -84.5536 1283.51 -48.835C1288.49 -16.7023 1282.59 15.3634 1289.76 47.1442C1301.33 98.377 1362.14 147.832 1338.65 195.491C1317.41 238.58 1243.69 227.295 1194.34 240.718C1153.35 251.869 1113.76 263.828 1071.28 268.218C1026.84 272.81 982.31 276.617 938.797 267.121C891.407 256.78 842.956 242.132 808.164 210.802C772.74 178.903 756.841 133.69 742.246 90.1275C727.414 45.856 698.067 -5.17529 722.177 -45.8538C748.621 -90.4709 839.372 -73.595 865.749 -118.246C898.086 -172.986 833.4 -252.65 873.86 -302.619C907.981 -344.76 983.679 -342.957 1039.85 -333.269C1094.42 -323.857 1135.96 -284.313 1177.34 -250.279Z" fill="#7169E2" fill-opacity="0.25"/>
</g>
<g opacity="0.75" filter="url(#filter3_f_1089_193)">
<path d="M-2.66293 -50.2791C30.861 -22.7032 59.0802 9.53107 78.6935 46.745C95.8067 79.2153 97.9686 115.446 103.507 151.165C108.489 183.298 102.592 215.363 109.764 247.144C121.328 298.377 182.145 347.832 158.651 395.491C137.411 438.58 63.6945 427.295 14.3428 440.718C-26.6519 451.869 -66.2367 463.828 -108.721 468.218C-153.164 472.81 -197.69 476.617 -241.203 467.121C-288.593 456.78 -337.044 442.132 -371.836 410.802C-407.26 378.903 -423.159 333.69 -437.754 290.128C-452.586 245.856 -481.933 194.825 -457.823 154.146C-431.379 109.529 -340.628 126.405 -314.251 81.7543C-281.914 27.014 -346.6 -52.6496 -306.14 -102.619C-272.019 -144.76 -196.321 -142.957 -140.149 -133.269C-85.5773 -123.857 -44.0375 -84.3127 -2.66293 -50.2791Z" fill="#7169E2" fill-opacity="0.25"/>
</g>
<g opacity="0.75" filter="url(#filter4_f_1089_193)">
<path d="M911.337 2346.72C944.861 2374.3 973.08 2406.53 992.693 2443.74C1009.81 2476.22 1011.97 2512.45 1017.51 2548.16C1022.49 2580.3 1016.59 2612.36 1023.76 2644.14C1035.33 2695.38 1096.14 2744.83 1072.65 2792.49C1051.41 2835.58 977.695 2824.29 928.343 2837.72C887.348 2848.87 847.763 2860.83 805.279 2865.22C760.836 2869.81 716.31 2873.62 672.797 2864.12C625.407 2853.78 576.956 2839.13 542.164 2807.8C506.74 2775.9 490.841 2730.69 476.246 2687.13C461.414 2642.86 432.067 2591.82 456.177 2551.15C482.621 2506.53 573.372 2523.4 599.749 2478.75C632.086 2424.01 567.4 2344.35 607.86 2294.38C641.981 2252.24 717.679 2254.04 773.851 2263.73C828.423 2273.14 869.963 2312.69 911.337 2346.72Z" fill="#7169E2" fill-opacity="0.25"/>
</g>
<g filter="url(#filter5_f_1089_193)">
<path d="M694.426 629.452C717.271 648.241 736.502 670.205 749.867 695.562C761.529 717.686 763.002 742.373 766.776 766.71C770.171 788.605 766.153 810.454 771.041 832.108C778.921 867.017 820.365 900.714 804.355 933.188C789.88 962.547 739.646 954.858 706.015 964.004C678.079 971.602 651.103 979.751 622.152 982.742C591.866 985.87 561.524 988.464 531.871 981.995C499.577 974.948 466.56 964.968 442.851 943.62C418.711 921.885 407.876 891.078 397.93 861.396C387.823 831.23 367.824 796.459 384.254 768.742C402.274 738.341 464.117 749.84 482.092 719.416C504.129 682.117 460.048 627.837 487.619 593.789C510.871 565.075 562.456 566.304 600.735 572.905C637.924 579.318 666.231 606.262 694.426 629.452Z" fill="#2C80FF" fill-opacity="0.25"/>
</g>
<g filter="url(#filter6_f_1089_193)">
<path d="M1541.43 1628.45C1564.27 1647.24 1583.5 1669.2 1596.87 1694.56C1608.53 1716.69 1610 1741.37 1613.78 1765.71C1617.17 1787.6 1613.15 1809.45 1618.04 1831.11C1625.92 1866.02 1667.36 1899.71 1651.35 1932.19C1636.88 1961.55 1586.65 1953.86 1553.01 1963C1525.08 1970.6 1498.1 1978.75 1469.15 1981.74C1438.87 1984.87 1408.52 1987.46 1378.87 1980.99C1346.58 1973.95 1313.56 1963.97 1289.85 1942.62C1265.71 1920.88 1254.88 1890.08 1244.93 1860.4C1234.82 1830.23 1214.82 1795.46 1231.25 1767.74C1249.27 1737.34 1311.12 1748.84 1329.09 1718.42C1351.13 1681.12 1307.05 1626.84 1334.62 1592.79C1357.87 1564.08 1409.46 1565.3 1447.74 1571.9C1484.92 1578.32 1513.23 1605.26 1541.43 1628.45Z" fill="#2C80FF" fill-opacity="0.25"/>
</g>
<g filter="url(#filter7_f_1089_193)">
<path d="M1445.43 2792.45C1468.27 2811.24 1487.5 2833.2 1500.87 2858.56C1512.53 2880.69 1514 2905.37 1517.78 2929.71C1521.17 2951.6 1517.15 2973.45 1522.04 2995.11C1529.92 3030.02 1571.36 3063.71 1555.35 3096.19C1540.88 3125.55 1490.65 3117.86 1457.01 3127C1429.08 3134.6 1402.1 3142.75 1373.15 3145.74C1342.87 3148.87 1312.52 3151.46 1282.87 3144.99C1250.58 3137.95 1217.56 3127.97 1193.85 3106.62C1169.71 3084.88 1158.88 3054.08 1148.93 3024.4C1138.82 2994.23 1118.82 2959.46 1135.25 2931.74C1153.27 2901.34 1215.12 2912.84 1233.09 2882.42C1255.13 2845.12 1211.05 2790.84 1238.62 2756.79C1261.87 2728.08 1313.46 2729.3 1351.74 2735.9C1388.92 2742.32 1417.23 2769.26 1445.43 2792.45Z" fill="#2C80FF" fill-opacity="0.25"/>
</g>
<g filter="url(#filter8_f_1089_193)">
<path d="M1847.02 6412.73C1932.66 6407.32 2060.92 6447.09 2098.92 6382.88C2143.88 6306.92 2007.37 6228.92 2005.93 6144.23C2005.04 6092.14 2097.35 6059.77 2092.53 6007.83C2087.79 5956.81 2012.52 5931.83 1982.08 5887.38C1948.33 5838.11 1965.44 5756.71 1903.92 5732.45C1840.29 5707.36 1772.81 5777 1702.43 5777.12C1638.74 5777.22 1580.45 5713.4 1521.3 5733.08C1462.16 5752.76 1454.2 5821.23 1426.36 5868.98C1404.38 5906.68 1409.03 5955.05 1374.24 5985.3C1301.59 6048.47 1152.42 6051.71 1120.37 6135.04C1095.06 6200.86 1185.2 6265.69 1249.72 6309.1C1310.36 6349.9 1394.38 6350.52 1468.89 6369.52C1529.57 6385 1587.22 6404.04 1650.08 6411.22C1715.95 6418.74 1780.73 6416.91 1847.02 6412.73Z" fill="#FF4D9C" fill-opacity="0.25"/>
</g>
<g filter="url(#filter9_f_1089_193)">
<path d="M176.426 4509.45C199.271 4528.24 218.502 4550.2 231.867 4575.56C243.529 4597.69 245.002 4622.37 248.776 4646.71C252.171 4668.6 248.153 4690.45 253.041 4712.11C260.921 4747.02 302.365 4780.71 286.355 4813.19C271.88 4842.55 221.646 4834.86 188.015 4844C160.079 4851.6 133.103 4859.75 104.152 4862.74C73.8657 4865.87 43.5236 4868.46 13.871 4861.99C-18.4232 4854.95 -51.4404 4844.97 -75.1495 4823.62C-99.2895 4801.88 -110.124 4771.08 -120.07 4741.4C-130.177 4711.23 -150.176 4676.46 -133.746 4648.74C-115.726 4618.34 -53.883 4629.84 -35.9081 4599.42C-13.8713 4562.12 -57.9524 4507.84 -30.3806 4473.79C-7.12854 4445.08 44.4564 4446.3 82.7351 4452.9C119.924 4459.32 148.231 4486.26 176.426 4509.45Z" fill="#2C80FF" fill-opacity="0.25"/>
</g>
<g filter="url(#filter10_f_1089_193)">
<path d="M296.021 3495.73C381.662 3490.32 509.917 3530.09 547.918 3465.88C592.876 3389.92 456.374 3311.92 454.932 3227.23C454.045 3175.14 546.355 3142.77 541.531 3090.83C536.792 3039.81 461.52 3014.83 431.079 2970.38C397.333 2921.11 414.441 2839.71 352.917 2815.45C289.293 2790.36 221.806 2860 151.425 2860.12C87.7363 2860.22 29.4507 2796.4 -29.7004 2816.08C-88.8444 2835.76 -96.8015 2904.23 -124.641 2951.98C-146.622 2989.68 -141.966 3038.05 -176.764 3068.3C-249.415 3131.47 -398.584 3134.71 -430.631 3218.04C-455.941 3283.86 -365.801 3348.69 -301.281 3392.1C-240.641 3432.9 -156.625 3433.52 -82.1095 3452.52C-21.4337 3468 36.2198 3487.04 99.0844 3494.22C164.951 3501.74 229.729 3499.91 296.021 3495.73Z" fill="#FF4D9C" fill-opacity="0.25"/>
</g>
<g filter="url(#filter11_f_1089_193)">
<rect y="1716" width="1728" height="4011" fill="white" fill-opacity="0.2"/>
</g>
</g>
<defs>
<filter id="filter0_f_1089_193" x="809.034" y="204.034" width="1529.93" height="1230.93" filterUnits="userSpaceOnUse" color-interpolation-filters="sRGB">
<feFlood flood-opacity="0" result="BackgroundImageFix"/>
<feBlend mode="normal" in="SourceGraphic" in2="BackgroundImageFix" result="shape"/>
<feGaussianBlur stdDeviation="134.483" result="effect1_foregroundBlur_1089_193"/>
</filter>
<filter id="filter1_f_1089_193" x="-600.966" y="1110.03" width="1529.93" height="1230.93" filterUnits="userSpaceOnUse" color-interpolation-filters="sRGB">
<feFlood flood-opacity="0" result="BackgroundImageFix"/>
<feBlend mode="normal" in="SourceGraphic" in2="BackgroundImageFix" result="shape"/>
<feGaussianBlur stdDeviation="134.483" result="effect1_foregroundBlur_1089_193"/>
</filter>
<filter id="filter2_f_1089_193" x="494.412" y="-557.588" width="1068.18" height="1049.18" filterUnits="userSpaceOnUse" color-interpolation-filters="sRGB">
<feFlood flood-opacity="0" result="BackgroundImageFix"/>
<feBlend mode="normal" in="SourceGraphic" in2="BackgroundImageFix" result="shape"/>
<feGaussianBlur stdDeviation="109.294" result="effect1_foregroundBlur_1089_193"/>
</filter>
<filter id="filter3_f_1089_193" x="-685.588" y="-357.588" width="1068.18" height="1049.18" filterUnits="userSpaceOnUse" color-interpolation-filters="sRGB">
<feFlood flood-opacity="0" result="BackgroundImageFix"/>
<feBlend mode="normal" in="SourceGraphic" in2="BackgroundImageFix" result="shape"/>
<feGaussianBlur stdDeviation="109.294" result="effect1_foregroundBlur_1089_193"/>
</filter>
<filter id="filter4_f_1089_193" x="228.412" y="2039.41" width="1068.18" height="1049.18" filterUnits="userSpaceOnUse" color-interpolation-filters="sRGB">
<feFlood flood-opacity="0" result="BackgroundImageFix"/>
<feBlend mode="normal" in="SourceGraphic" in2="BackgroundImageFix" result="shape"/>
<feGaussianBlur stdDeviation="109.294" result="effect1_foregroundBlur_1089_193"/>
</filter>
<filter id="filter5_f_1089_193" x="159.412" y="350.412" width="867.176" height="854.176" filterUnits="userSpaceOnUse" color-interpolation-filters="sRGB">
<feFlood flood-opacity="0" result="BackgroundImageFix"/>
<feBlend mode="normal" in="SourceGraphic" in2="BackgroundImageFix" result="shape"/>
<feGaussianBlur stdDeviation="109.294" result="effect1_foregroundBlur_1089_193"/>
</filter>
<filter id="filter6_f_1089_193" x="1006.41" y="1349.41" width="867.176" height="854.176" filterUnits="userSpaceOnUse" color-interpolation-filters="sRGB">
<feFlood flood-opacity="0" result="BackgroundImageFix"/>
<feBlend mode="normal" in="SourceGraphic" in2="BackgroundImageFix" result="shape"/>
<feGaussianBlur stdDeviation="109.294" result="effect1_foregroundBlur_1089_193"/>
</filter>
<filter id="filter7_f_1089_193" x="910.412" y="2513.41" width="867.176" height="854.176" filterUnits="userSpaceOnUse" color-interpolation-filters="sRGB">
<feFlood flood-opacity="0" result="BackgroundImageFix"/>
<feBlend mode="normal" in="SourceGraphic" in2="BackgroundImageFix" result="shape"/>
<feGaussianBlur stdDeviation="109.294" result="effect1_foregroundBlur_1089_193"/>
</filter>
<filter id="filter8_f_1089_193" x="847.034" y="5458.03" width="1529.93" height="1230.93" filterUnits="userSpaceOnUse" color-interpolation-filters="sRGB">
<feFlood flood-opacity="0" result="BackgroundImageFix"/>
<feBlend mode="normal" in="SourceGraphic" in2="BackgroundImageFix" result="shape"/>
<feGaussianBlur stdDeviation="134.483" result="effect1_foregroundBlur_1089_193"/>
</filter>
<filter id="filter9_f_1089_193" x="-358.588" y="4230.41" width="867.176" height="854.176" filterUnits="userSpaceOnUse" color-interpolation-filters="sRGB">
<feFlood flood-opacity="0" result="BackgroundImageFix"/>
<feBlend mode="normal" in="SourceGraphic" in2="BackgroundImageFix" result="shape"/>
<feGaussianBlur stdDeviation="109.294" result="effect1_foregroundBlur_1089_193"/>
</filter>
<filter id="filter10_f_1089_193" x="-703.966" y="2541.03" width="1529.93" height="1230.93" filterUnits="userSpaceOnUse" color-interpolation-filters="sRGB">
<feFlood flood-opacity="0" result="BackgroundImageFix"/>
<feBlend mode="normal" in="SourceGraphic" in2="BackgroundImageFix" result="shape"/>
<feGaussianBlur stdDeviation="134.483" result="effect1_foregroundBlur_1089_193"/>
</filter>
<filter id="filter11_f_1089_193" x="-98" y="1618" width="1924" height="4207" filterUnits="userSpaceOnUse" color-interpolation-filters="sRGB">
<feFlood flood-opacity="0" result="BackgroundImageFix"/>
<feBlend mode="normal" in="SourceGraphic" in2="BackgroundImageFix" result="shape"/>
<feGaussianBlur stdDeviation="49" result="effect1_foregroundBlur_1089_193"/>
</filter>
<clipPath id="clip0_1089_193">
<rect width="1728" height="7444" fill="white"/>
</clipPath>
</defs>
</svg>
