<svg width="718" height="719" viewBox="0 0 718 719" fill="none" xmlns="http://www.w3.org/2000/svg">
<path d="M651.456 359.945L632.601 360.347L623.037 360.505C619.849 360.577 616.633 360.505 613.431 360.591H612.784V359.945L612.713 343.876V343.158H613.431L632.443 343.244C638.776 343.244 645.123 343.417 651.456 343.489H651.844V343.876C651.844 346.605 651.729 349.319 651.657 351.99L651.456 359.945ZM651.456 359.945L651.255 351.832C651.255 349.146 651.082 346.504 651.068 343.876L651.456 344.264C645.123 344.336 638.776 344.494 632.443 344.508L613.431 344.594L614.149 343.876L614.062 359.945L613.431 359.299C616.561 359.299 619.691 359.299 622.822 359.385L632.271 359.543L651.456 359.945Z" fill="#EBEBEB"/>
<path d="M602.603 313.203H462.177V574.369H602.603V313.203Z" fill="url(#paint0_linear_1_416)"/>
<path d="M609.41 305.995H455.384V313.203H609.41V305.995Z" fill="#2C3639"/>
<path d="M657.846 305.995H609.41V313.203H657.846V305.995Z" fill="#818181" fill-opacity="0.871"/>
<path d="M650.178 313.203H602.603V574.369H650.178V313.203Z" fill="url(#paint1_linear_1_416)"/>
<path d="M587.496 481.373H477.298V419.094H587.496V481.373ZM477.657 481.014H587.137V419.453H477.657V481.014Z" fill="#C7C7C7"/>
<path d="M538.471 437.302H517.018V449.638H538.471V437.302Z" fill="#C7C7C7"/>
<path d="M544.991 448.877H523.178V438.049H544.991V448.877ZM523.537 448.532H544.632V438.48H523.537V448.532Z" fill="#C7C7C7"/>
<path d="M587.496 559.607H477.298V497.356H587.496V559.607ZM477.657 559.248H587.137V497.686H477.657V559.248Z" fill="#C7C7C7"/>
<path d="M538.471 515.536H517.018V527.871H538.471V515.536Z" fill="#C7C7C7"/>
<path d="M544.991 527.11H523.178V516.282H544.991V527.11ZM523.537 526.751H544.632V516.699H523.537V526.751Z" fill="#C7C7C7"/>
<path d="M587.31 341.033H477.47V402.953H587.31V341.033Z" fill="#A6A6A6"/>
<path d="M576.626 325.18H493.008V385.793H576.626V325.18Z" fill="#C7C7C7"/>
<path d="M522.546 318.904H493.008V325.18H524.241L522.546 318.904Z" fill="#C7C7C7"/>
<path d="M576.396 385.793H492.778L486.33 330.206H569.948L576.396 385.793Z" fill="#A6A6A6"/>
<path d="M515.208 324.447H485.67L486.33 330.206H517.578L515.208 324.447Z" fill="#A6A6A6"/>
<path d="M534.407 341.033H424.568V402.953H534.407V341.033Z" fill="url(#paint2_linear_1_416)"/>
<path d="M534.58 403.14H424.381V340.832H534.58V403.14ZM424.74 402.781H534.192V341.22H424.74V402.781Z" fill="#C7C7C7"/>
<path d="M485.555 359.069H464.101V371.404H485.555V359.069Z" fill="#C7C7C7"/>
<path d="M492.074 370.643H470.261V359.816H492.074V370.643ZM470.62 370.284H491.715V360.232H470.62V370.284Z" fill="#C7C7C7"/>
<path d="M587.31 350.324H534.666V402.968H587.31V350.324Z" fill="#DBDBDB"/>
<path d="M337.905 205.001L417.948 188.86L404.823 133.933L324.78 150.074L337.905 205.001Z" fill="url(#paint3_linear_1_416)"/>
<path d="M375.184 133.948L403.459 128.247L404.823 133.933L374.911 139.964L375.184 133.948Z" fill="#818181" fill-opacity="0.871"/>
<path d="M337.991 204.986L418.034 188.846L411.313 137.408L331.271 153.549L337.991 204.986Z" fill="url(#paint4_linear_1_416)"/>
<path d="M382.335 137.782L410.624 132.081L411.314 137.408L381.416 143.439L382.335 137.782Z" fill="url(#paint5_linear_1_416)"/>
<path d="M512.58 255.06L602.818 297.853L630.174 234.41L539.936 191.632L512.58 255.06Z" fill="#DBDBDB"/>
<path d="M601.124 212.726L633.003 227.848L630.174 234.41L596.457 218.427L601.124 212.726Z" fill="#DBDBDB"/>
<path d="M512.666 255.117L602.919 297.896L633.994 242.567L543.756 199.788L512.666 255.117Z" fill="#818181" fill-opacity="0.871"/>
<path d="M605.332 221.716L637.225 236.837L633.994 242.567L600.277 226.584L605.332 221.716Z" fill="#EBEBEB"/>
<path d="M59.5222 574.211L134.395 573.852L209.268 573.737L359 573.493L508.732 573.722L583.605 573.852L658.478 574.211L583.605 574.555L508.732 574.685L359 574.914L209.268 574.685L134.395 574.555L59.5222 574.211Z" fill="#263238"/>
<path d="M359 679.455C505.387 679.455 624.057 670.609 624.057 659.696C624.057 648.783 505.387 639.936 359 639.936C212.613 639.936 93.9431 648.783 93.9431 659.696C93.9431 670.609 212.613 679.455 359 679.455Z" fill="url(#paint6_linear_1_416)"/>
<path d="M591.488 460.637C581.953 441.036 565.267 430.97 546.47 436.541C527.673 442.113 524.757 468.306 538.802 474.926C552.846 481.546 566.861 462.217 574.271 458.254C581.681 454.29 591.488 460.637 591.488 460.637Z" fill="#74D3FF"/>
<path d="M600.722 512.793C600.722 510.424 600.578 508.069 600.492 505.699C600.32 500.989 600.162 496.279 599.99 491.555C599.674 482.939 598.74 474.466 595.165 466.511C592.008 459.305 586.734 453.23 580.043 449.092C577.568 447.586 574.896 446.431 572.102 445.66C569.573 443.093 566.349 441.321 562.826 440.562C558.472 439.67 553.994 439.558 549.6 440.232C549.442 440.232 549.442 440.49 549.6 440.476C553.787 439.936 558.04 440.239 562.108 441.366C563.854 441.838 565.544 442.497 567.148 443.334C568.151 443.872 569.111 444.486 570.02 445.172C566.226 444.392 562.31 444.431 558.532 445.287C557.173 445.619 555.842 446.06 554.554 446.608C553.527 446.382 552.475 446.291 551.424 446.335C550.047 446.38 548.679 446.578 547.346 446.924C544.623 447.686 542.018 448.822 539.606 450.298C539.476 450.298 539.606 450.585 539.749 450.514C542.112 449.201 544.651 448.234 547.288 447.642C548.563 447.343 549.859 447.151 551.166 447.067C551.898 447.067 552.602 447.067 553.334 447.067C547.974 449.542 543.664 453.836 541.171 459.187C541.171 459.331 541.329 459.446 541.386 459.302C542.869 456.2 545.032 453.472 547.714 451.321C550.397 449.17 553.53 447.653 556.881 446.881C557.297 446.78 557.714 446.723 558.144 446.636C558.036 447.263 557.969 447.896 557.943 448.532C557.814 449.494 557.656 450.442 557.455 451.404C557.07 453.349 556.561 455.267 555.933 457.148C555.295 459.049 554.532 460.905 553.65 462.705C552.807 464.614 551.741 466.417 550.476 468.076C550.46 468.088 550.447 468.104 550.438 468.122C550.43 468.141 550.425 468.16 550.425 468.181C550.426 468.201 550.431 468.221 550.44 468.239C550.45 468.257 550.463 468.272 550.48 468.284C550.496 468.296 550.515 468.303 550.535 468.306C550.555 468.309 550.575 468.308 550.595 468.302C550.614 468.295 550.631 468.285 550.646 468.27C550.66 468.256 550.671 468.239 550.677 468.22C551.797 466.453 553.118 464.816 554.152 462.978C555.138 461.222 555.988 459.393 556.694 457.507C557.419 455.6 557.981 453.635 558.374 451.634C558.575 450.585 558.748 449.523 558.862 448.446C558.992 447.808 559.035 447.156 558.992 446.507C561.202 446.172 563.446 446.124 565.669 446.364C564.822 451.045 563.932 455.913 561.361 459.977C561.275 460.106 561.505 460.235 561.577 460.092C562.797 457.938 563.876 455.708 564.808 453.414C565.67 451.181 566.212 448.836 566.416 446.45C570.298 446.967 574.046 448.219 577.459 450.14C583.881 453.878 589.006 459.49 592.149 466.224C595.464 473.473 597.313 481.305 597.591 489.271C598.223 499.323 598.353 509.375 599.358 519.341C599.358 519.987 600.449 520.217 600.578 519.47C600.834 517.254 600.882 515.018 600.722 512.793Z" fill="#263238"/>
<path d="M578.708 447.512C578.086 446.75 577.361 446.078 576.554 445.516C575.764 444.87 574.96 444.238 574.127 443.678C572.474 442.546 570.645 441.697 568.713 441.165C568.555 441.165 568.498 441.366 568.713 441.409C570.658 441.903 572.478 442.798 574.055 444.037C574.845 444.612 575.621 445.244 576.353 445.89C577.02 446.585 577.756 447.21 578.55 447.757C578.579 447.757 578.608 447.75 578.633 447.736C578.659 447.722 578.68 447.702 578.696 447.678C578.712 447.653 578.721 447.626 578.723 447.597C578.725 447.568 578.72 447.539 578.708 447.512Z" fill="#263238"/>
<path d="M548.265 454.621C546.682 456.438 545.219 458.357 543.885 460.365C542.582 462.39 541.495 464.546 540.64 466.798C540.64 466.87 540.711 466.913 540.755 466.798C542.93 462.531 545.502 458.478 548.437 454.692C548.552 454.664 548.365 454.491 548.265 454.621Z" fill="#263238"/>
<path d="M568.771 452.682C568.57 453.907 568.208 455.099 567.694 456.229C567.17 457.319 566.56 458.366 565.87 459.359C565.859 459.375 565.854 459.394 565.857 459.413C565.859 459.431 565.869 459.448 565.885 459.46C565.9 459.471 565.919 459.476 565.938 459.474C565.957 459.471 565.974 459.461 565.985 459.446C567.629 457.555 568.683 455.223 569.015 452.739C569.029 452.581 568.8 452.524 568.771 452.682Z" fill="#263238"/>
<path d="M599.386 461.111C599.386 461.111 612.885 444.152 638.934 450.169C663.69 455.913 675.121 501.291 650.106 506.719C625.091 512.147 629.499 470.072 620.352 463.007C613.689 457.765 604.068 458.886 599.386 461.111Z" fill="#74D3FF"/>
<path d="M659.124 474.954C657.426 473.469 655.632 472.097 653.753 470.847C651.978 469.633 650.046 468.667 648.009 467.975C645.143 463.589 641.281 459.943 636.737 457.335H637.512C638.895 457.263 640.28 457.263 641.662 457.335C644.437 457.52 647.155 458.201 649.689 459.345C649.847 459.345 649.948 459.173 649.804 459.115C647.23 458.007 644.536 457.197 641.777 456.703C640.436 456.462 639.076 456.342 637.713 456.344C636.986 456.344 636.253 456.387 635.516 456.473H635.1C632.712 455.262 630.192 454.332 627.589 453.702C627.834 453.702 628.078 453.558 628.322 453.515C629.591 453.227 630.876 453.012 632.17 452.869C634.764 452.574 637.385 452.618 639.968 452.998C640.126 452.998 640.169 452.768 639.968 452.754C637.358 452.429 634.726 452.318 632.098 452.424C629.888 452.49 627.689 452.779 625.536 453.285C623.971 452.995 622.387 452.812 620.797 452.739C611.707 452.352 601.799 455.755 596.213 463.208C590.627 470.661 589.521 480.655 588.53 489.673C587.016 502.237 586.685 514.915 587.539 527.541C587.539 528.287 588.645 528.144 588.674 527.44C589.004 516.728 589.392 506.029 590.411 495.36C590.885 490.42 591.417 485.452 592.235 480.555C592.835 476.343 594.044 472.241 595.825 468.378C597.757 464.429 600.815 461.141 604.613 458.929C608.432 456.74 612.69 455.43 617.078 455.095C621.008 454.772 624.964 455.141 628.767 456.186C628.621 456.948 628.596 457.728 628.695 458.498C628.776 459.474 628.969 460.438 629.27 461.37C629.547 462.247 629.912 463.094 630.361 463.897C630.835 464.788 631.438 465.592 631.984 466.439C632.07 466.582 632.285 466.439 632.185 466.295C631.118 464.768 630.425 463.012 630.16 461.169C630.002 460.291 629.901 459.403 629.858 458.512C629.858 457.837 629.858 457.162 629.858 456.502C633.996 457.764 637.855 459.801 641.231 462.504C641.863 463.007 642.481 463.538 643.07 464.098C642.211 464.893 641.471 465.807 640.872 466.812C639.975 468.114 639.197 469.493 638.546 470.934C637.346 473.833 636.54 476.881 636.148 479.995C636.157 480.02 636.173 480.042 636.195 480.058C636.217 480.073 636.243 480.082 636.27 480.082C636.297 480.082 636.323 480.073 636.345 480.058C636.367 480.042 636.383 480.02 636.392 479.995C636.867 476.972 637.869 474.056 639.35 471.379C640.035 470.06 640.807 468.789 641.662 467.573C642.093 466.942 642.553 466.324 643.026 465.721C643.285 465.391 643.558 465.075 643.802 464.716C646.868 467.717 649.373 471.243 651.197 475.127C649.969 476.431 648.943 477.912 648.153 479.521C647.212 481.196 646.396 482.938 645.712 484.734C644.45 488.206 643.409 491.756 642.596 495.36C642.604 495.385 642.621 495.407 642.643 495.423C642.665 495.438 642.691 495.447 642.718 495.447C642.745 495.447 642.771 495.438 642.793 495.423C642.814 495.407 642.831 495.385 642.84 495.36C643.636 491.73 644.88 488.214 646.545 484.892C647.32 483.274 648.139 481.665 649 480.067C649.908 478.599 650.728 477.079 651.456 475.514C653.189 479.315 654.197 483.406 654.428 487.577C654.428 487.749 654.687 487.72 654.672 487.577C654.195 481.031 652.194 474.687 648.828 469.052C650.422 469.742 652.016 470.388 653.552 471.221C655.51 472.256 657.329 473.535 658.966 475.026C659.009 475.256 659.124 475.069 659.124 474.954Z" fill="#263238"/>
<path d="M639.953 475.916C639.164 478.487 638.187 480.986 637.483 483.585C636.765 486.079 636.379 488.657 636.335 491.253C636.335 491.325 636.435 491.325 636.45 491.253C637.153 486.052 638.404 480.94 640.183 476.003C640.196 475.987 640.205 475.968 640.209 475.948C640.213 475.928 640.213 475.907 640.207 475.887C640.202 475.868 640.192 475.85 640.178 475.834C640.164 475.819 640.147 475.808 640.128 475.801C640.109 475.793 640.088 475.791 640.068 475.793C640.048 475.795 640.028 475.803 640.011 475.814C639.994 475.825 639.98 475.84 639.97 475.858C639.96 475.876 639.954 475.896 639.953 475.916Z" fill="#263238"/>
<path d="M656.453 469.541C655.43 468.555 654.269 467.723 653.007 467.071C651.717 466.486 650.382 466.005 649.015 465.635C648.857 465.635 648.799 465.85 649.015 465.879C650.357 466.233 651.646 466.764 652.849 467.458C654.082 468.1 655.267 468.83 656.396 469.641C656.416 469.635 656.433 469.621 656.444 469.602C656.454 469.583 656.458 469.562 656.453 469.541Z" fill="#263238"/>
<path d="M612.21 438.48C612.21 438.48 614.709 408.008 637.369 398.128C656.281 389.886 667.108 411.139 653.739 424.163C642.912 434.66 625.565 429.864 612.21 438.48Z" fill="#74D3FF"/>
<path d="M649.546 404.016C646.103 405.409 642.747 407.006 639.494 408.798C636.784 410.36 634.174 412.091 631.682 413.982C632.055 413.206 632.386 412.402 632.759 411.656C633.348 410.478 633.98 409.329 634.683 408.209C636.078 405.902 637.757 403.779 639.681 401.891C639.795 401.776 639.609 401.603 639.494 401.718C637.582 403.615 635.825 405.66 634.238 407.836C633.455 408.942 632.736 410.093 632.084 411.282C631.423 412.377 630.911 413.555 630.562 414.786C630.487 414.856 630.405 414.919 630.318 414.973C626.359 418.124 622.732 421.67 619.49 425.556C619.562 425.269 619.62 424.967 619.691 424.694C620.122 423.201 620.601 421.722 621.127 420.257C622.104 417.131 623.479 414.143 625.22 411.368C625.306 411.239 625.091 411.11 625.005 411.253C623.229 414.013 621.646 416.892 620.266 419.869C619.631 421.326 619.108 422.828 618.701 424.364C618.371 425.362 618.121 426.385 617.954 427.423C616.977 428.672 616.001 429.936 615.082 431.243C605.36 445.086 600.478 461.844 599.286 478.631C598.946 483.625 598.865 488.634 599.042 493.637C599.079 498.685 599.52 503.723 600.363 508.7C600.374 508.773 600.414 508.838 600.473 508.881C600.533 508.924 600.606 508.942 600.679 508.93C600.751 508.919 600.816 508.879 600.859 508.82C600.902 508.76 600.92 508.687 600.909 508.614C600.808 504.22 600.349 499.826 600.262 495.417C600.183 491.004 600.327 486.59 600.693 482.192C601.403 473.395 603.059 464.7 605.633 456.258C608.258 447.606 612.127 439.382 617.121 431.846C618.069 431.659 619.017 431.4 619.993 431.156C620.969 430.912 622.248 430.582 623.382 430.266C625.559 429.704 627.675 428.93 629.7 427.954C629.83 427.882 629.7 427.653 629.571 427.739C627.571 428.831 625.401 429.579 623.152 429.95C621.386 430.295 619.548 430.539 617.767 430.941C619.4 428.542 621.16 426.232 623.037 424.019C627.369 424.407 631.735 424.082 635.961 423.057C638.2 422.515 640.402 421.829 642.553 421.004C644.821 420.128 646.975 419.008 649.216 418.06C649.236 418.057 649.255 418.049 649.272 418.037C649.289 418.025 649.302 418.009 649.311 417.99C649.32 417.972 649.325 417.951 649.325 417.931C649.325 417.91 649.319 417.89 649.31 417.872C649.3 417.853 649.286 417.838 649.269 417.826C649.252 417.814 649.233 417.807 649.212 417.804C649.192 417.802 649.171 417.804 649.151 417.811C649.132 417.818 649.115 417.83 649.101 417.845C645.046 420.059 640.623 421.519 636.047 422.153C632 422.789 627.91 423.124 623.813 423.158C625.421 421.305 627.087 419.51 628.867 417.816C634.813 412.158 641.878 406.945 649.718 404.231C649.776 404.188 649.689 404.016 649.546 404.016Z" fill="#263238"/>
<path d="M631.108 404.102C630.088 405.389 629.162 406.747 628.336 408.166C627.478 409.652 626.808 411.239 626.34 412.89C626.34 412.89 626.34 412.977 626.426 412.89C627.187 411.454 627.862 409.846 628.58 408.367C629.331 406.898 630.241 405.516 631.294 404.246C631.395 404.145 631.208 404.016 631.108 404.102Z" fill="#263238"/>
<path d="M594.605 432.966C594.461 434.287 591.172 421.909 572.016 410.923C554.612 400.871 533.847 375.023 550.907 358.567C564.678 345.327 600.952 374.19 594.605 432.966Z" fill="#74D3FF"/>
<path d="M607.787 503.962C607.506 491.071 606.489 478.208 604.743 465.434C603.224 453.701 600.515 442.154 596.658 430.97C595.222 426.949 593.599 422.986 591.833 419.08C591.934 417.558 591.905 416.03 591.747 414.513C591.661 412.575 591.488 410.622 591.302 408.683C591.115 406.744 590.928 404.791 590.699 402.853C590.469 400.914 590.052 398.976 589.966 397.037C589.966 396.865 589.693 396.893 589.722 397.037C590.11 399.07 590.34 401.129 590.411 403.197C590.569 405.079 590.67 406.96 590.727 408.841C590.785 410.722 590.727 412.618 590.727 414.499C590.727 415.174 590.727 415.935 590.656 416.624C588.861 412.819 586.922 409.071 584.84 405.423C586.132 397.482 584.452 389.182 582.829 381.413C582.829 381.255 582.556 381.327 582.585 381.485C583.386 385.539 583.809 389.659 583.849 393.792C583.921 397.051 583.777 400.325 583.763 403.585C583.303 402.795 582.844 402.02 582.327 401.244C579.847 397.185 577.195 393.222 574.371 389.354C574.597 387.47 574.534 385.562 574.185 383.697C573.856 381.601 573.377 379.533 572.749 377.507C572.146 375.482 571.441 373.488 570.638 371.534C569.805 369.509 568.699 367.613 567.895 365.589C567.892 365.569 567.884 365.551 567.873 365.535C567.861 365.519 567.846 365.506 567.829 365.496C567.812 365.487 567.792 365.482 567.773 365.481C567.753 365.48 567.734 365.484 567.716 365.492C567.698 365.5 567.682 365.512 567.669 365.526C567.656 365.541 567.647 365.559 567.642 365.578C567.637 365.597 567.637 365.617 567.641 365.636C567.645 365.656 567.653 365.674 567.665 365.689C568.686 367.594 569.49 369.608 570.063 371.692C570.704 373.646 571.231 375.636 571.643 377.651C572.045 379.676 572.375 381.701 572.662 383.74C572.849 385.075 572.964 386.482 573.194 387.832C569.091 382.324 564.609 377.108 559.782 372.223C559.667 372.108 559.509 372.295 559.609 372.41C566.913 380.614 573.432 389.484 579.081 398.904L579.699 399.966C578.651 399.306 577.43 398.789 576.439 398.229C574.591 397.195 572.729 396.175 570.853 395.17L565.425 392.198C564.506 391.681 563.587 391.149 562.639 390.661C561.509 390.154 560.424 389.554 559.394 388.866C559.25 388.751 559.092 388.981 559.25 389.053C561.088 390.072 562.725 391.58 564.506 392.715C566.287 393.849 568.11 394.955 569.963 395.989C573.38 397.899 577.071 399.263 580.431 401.23C582.758 405.294 584.897 409.473 586.879 413.723C584.84 412.421 582.762 411.182 580.647 410.004C579.297 409.248 577.933 408.501 576.554 407.764C575.179 407.143 573.883 406.362 572.691 405.438C572.666 405.422 572.635 405.415 572.605 405.419C572.575 405.423 572.548 405.437 572.527 405.459C572.507 405.482 572.495 405.51 572.493 405.54C572.492 405.57 572.501 405.6 572.519 405.624C574.757 407.622 577.231 409.338 579.886 410.736C582.341 412.172 584.84 413.608 587.396 414.815C589.435 419.309 591.302 423.876 592.939 428.528C600.995 451.361 603.967 475.601 605.375 499.668C605.805 506.848 606.021 514.028 606.107 521.208C606.193 528.388 605.82 535.568 605.834 542.748C605.834 542.949 606.179 543.006 606.207 542.748C607.069 536.386 607.227 529.91 607.5 523.491C607.773 517.072 607.931 510.481 607.787 503.962Z" fill="#263238"/>
<path d="M572.964 400.598C569.467 399.048 566.067 397.289 562.783 395.328C559.457 393.454 556.231 391.407 553.118 389.196C553.118 389.196 553.004 389.196 553.118 389.283C556.056 391.659 559.156 393.828 562.395 395.773C565.791 397.669 569.302 399.352 572.907 400.814C572.964 400.871 573.122 400.656 572.964 400.598Z" fill="#263238"/>
<path d="M578.536 374.779C578.248 373.673 577.904 372.582 577.516 371.491C577.529 371.472 577.536 371.449 577.536 371.426C577.536 371.403 577.529 371.38 577.516 371.361C577.272 370.744 577.014 370.126 576.769 369.523C576.741 369.444 576.708 369.368 576.669 369.294C576.627 369.176 576.579 369.061 576.525 368.949C576.525 368.949 576.655 369.38 576.712 369.581C576.739 369.702 576.772 369.822 576.812 369.94C578.085 374.201 579.045 378.549 579.684 382.95C579.684 383.079 579.914 383.093 579.914 382.95C579.706 380.19 579.245 377.455 578.536 374.779Z" fill="#263238"/>
<path d="M628.035 508.586L626.656 524.784L622.477 574.211H577.645L573.467 524.784L572.102 508.586H628.035Z" fill="#37474F"/>
<path d="M628.035 508.586L626.656 524.784H573.467L572.102 508.586H628.035Z" fill="#263238"/>
<path d="M632.429 502.08H567.708V517.618H632.429V502.08Z" fill="#37474F"/>
<path d="M333.942 395.802L333.353 394.912C334.057 394.438 334.789 393.964 335.407 393.476L336.024 394.352C335.363 394.84 334.66 395.4 333.942 395.802ZM341.596 389.714L340.849 388.952C342.195 387.629 343.447 386.213 344.597 384.716L345.444 385.362C344.274 386.891 342.987 388.326 341.596 389.656V389.714ZM349.192 379.13L348.216 378.671C349.006 376.963 349.645 375.19 350.126 373.372L351.174 373.645C350.669 375.526 350.006 377.361 349.192 379.13ZM352.409 366.493L351.346 366.393C351.504 364.627 351.59 362.76 351.59 360.649H352.667C352.667 362.803 352.581 364.698 352.409 366.493ZM351.375 353.569C351.289 352.133 351.203 350.697 351.102 349.261L351.016 347.825L352.093 347.754L352.179 349.19C352.28 350.626 352.366 352.062 352.452 353.498L351.375 353.569ZM350.657 340.645C350.657 339.482 350.657 338.333 350.657 337.17C350.657 336.409 350.657 335.634 350.657 334.873H351.734C351.734 335.634 351.734 336.395 351.734 337.156C351.734 338.305 351.734 339.454 351.734 340.588L350.657 340.645ZM352.236 327.721L351.174 327.578C351.42 325.646 351.77 323.728 352.222 321.834L353.27 322.092C352.826 323.973 352.481 325.876 352.236 327.793V327.721ZM411.73 322.308C411.178 322.309 410.626 322.276 410.079 322.207L410.193 321.144C410.704 321.201 411.217 321.23 411.73 321.231C413.048 321.232 414.358 321.019 415.607 320.599L415.952 321.618C414.593 322.081 413.166 322.314 411.73 322.308ZM403.114 319.651C401.505 318.527 400.035 317.215 398.734 315.745L399.538 315.027C400.775 316.436 402.179 317.689 403.717 318.761L403.114 319.651ZM421.868 317.239L420.992 316.607C422.062 315.118 422.743 313.385 422.974 311.566L424.036 311.696C423.811 313.714 423.086 315.644 421.926 317.31L421.868 317.239ZM355.367 315.372L354.376 314.97C355.105 313.175 355.949 311.429 356.903 309.743L357.837 310.274C356.927 311.946 356.122 313.673 355.424 315.444L355.367 315.372ZM394.383 309.944C393.392 308.364 392.43 306.67 391.511 304.889L392.473 304.401C393.322 306.099 394.256 307.752 395.273 309.355L394.383 309.944ZM421.94 304.932C421.155 303.247 420.103 301.7 418.824 300.351L419.614 299.619C420.972 301.051 422.087 302.695 422.916 304.487L421.94 304.932ZM361.872 304.53L361.039 303.841C362.28 302.346 363.629 300.945 365.074 299.648L365.792 300.452C364.385 301.711 363.074 303.074 361.872 304.53ZM388.653 298.326C387.978 296.546 387.361 294.693 386.83 292.827L387.864 292.525C388.395 294.363 388.998 296.187 389.659 297.939L388.653 298.326ZM371.421 296.23L370.861 295.311C372.512 294.296 374.235 293.404 376.017 292.64L376.447 293.631C374.747 294.38 373.101 295.249 371.522 296.23H371.421ZM413.238 295.986C412.749 295.684 412.247 295.397 411.802 295.11C410.653 294.492 409.461 293.932 408.255 293.43L408.671 292.439C409.906 292.956 411.127 293.53 412.304 294.162L413.87 295.067L413.238 295.986ZM383.168 291.419L382.924 290.371C384.815 289.935 386.734 289.628 388.668 289.452L388.768 290.515C386.918 290.698 385.08 291.001 383.268 291.419H383.168ZM401.434 291.304C399.588 290.898 397.717 290.619 395.833 290.472L395.92 289.395C397.851 289.552 399.77 289.84 401.664 290.256L401.434 291.304ZM385.078 285.805C384.704 283.938 384.403 282.013 384.173 280.061L385.236 279.931C385.465 281.812 385.767 283.708 386.14 285.56L385.078 285.805ZM383.642 272.881C383.642 271.99 383.642 271.1 383.642 270.195C383.642 269.291 383.642 268.142 383.642 267.093H384.719C384.719 268.127 384.719 269.147 384.719 270.152C384.719 271.157 384.719 271.918 384.719 272.794L383.642 272.881ZM385.322 260.043L384.259 259.899C384.503 257.989 384.834 256.065 385.221 254.155L386.27 254.37C385.968 256.266 385.652 258.162 385.394 260.057L385.322 260.043ZM388.022 247.506L386.988 247.19C387.548 245.352 388.179 243.514 388.869 241.719L389.874 242.107C389.271 243.888 388.653 245.711 388.093 247.492L388.022 247.506ZM392.746 235.588L391.77 235.114C392.631 233.391 393.55 231.667 394.512 230.016L395.446 230.562C394.555 232.213 393.651 233.893 392.818 235.602L392.746 235.588ZM399.294 224.559L398.418 223.942C399.495 222.391 400.673 220.84 401.879 219.318L402.726 219.993C401.592 221.515 400.443 223.08 399.366 224.516L399.294 224.559ZM407.436 214.665L406.675 213.904C408.011 212.554 409.461 211.233 410.983 209.998L411.672 210.831C410.221 212.043 408.831 213.328 407.508 214.679L407.436 214.665ZM417.388 206.638L416.799 205.733C418.393 204.699 420.073 203.723 421.782 202.861L422.299 203.809C420.748 204.671 419.025 205.633 417.46 206.652L417.388 206.638ZM428.732 200.707L428.316 199.716C430.053 198.984 431.877 198.28 433.729 197.677L434.074 198.697C432.322 199.329 430.527 200.004 428.804 200.722L428.732 200.707ZM440.909 196.658L440.651 195.624C442.475 195.15 444.37 194.719 446.28 194.346L446.481 195.394C444.672 195.796 442.791 196.213 440.981 196.672L440.909 196.658ZM453.546 194.216L453.403 193.154C455.269 192.895 457.194 192.68 459.147 192.493L459.247 193.57C457.38 193.757 455.47 193.972 453.618 194.231L453.546 194.216ZM484.923 193.714C484.923 193.714 482.783 193.427 479.179 193.226L479.251 192.149C482.826 192.35 484.995 192.637 484.995 192.637L484.923 193.714ZM466.37 193.111V192.034C468.136 192.034 469.917 191.933 471.683 191.933H472.142V193.01H471.697C469.96 193.025 468.136 193.068 466.442 193.125L466.37 193.111Z" fill="#263238"/>
<path d="M487.45 129.912C473.09 112.163 471.137 97.4157 468.265 91.5568C464.46 83.7593 447.587 79.8678 436.257 72.8888C428.129 67.992 419.312 57.0354 417.373 59.1894C416.354 60.3382 420.475 66.915 420.475 66.915C420.475 66.915 417.991 70.4907 424.912 76.206C424.912 76.206 423.835 82.7111 432.164 87.177C432.164 87.177 429.579 91.9589 435.567 96.353C435.567 96.353 433.313 101.279 441.685 104.452C441.685 104.452 439.976 110.641 446.898 113.456C446.937 114.469 447.185 115.462 447.628 116.374C448.07 117.286 448.697 118.097 449.468 118.755C454.437 123.666 468.236 127.586 477.786 136.346C484.693 142.664 484.076 149.183 485.354 149.471C486.136 149.698 486.977 149.607 487.693 149.217C488.408 148.827 488.94 148.169 489.173 147.388C489.173 147.388 489.274 132.153 487.45 129.912Z" fill="#818181" fill-opacity="0.871"/>
<path d="M486.115 134.493C486.04 133.566 485.857 132.65 485.569 131.765C485.262 130.998 484.819 130.293 484.262 129.683C483.099 128.361 481.721 127.213 480.514 125.92C475.654 120.699 471.89 114.556 469.443 107.855C468.222 104.452 467.518 100.876 466.126 97.5306C464.844 94.386 462.765 91.6294 460.094 89.532C457.425 87.5438 454.533 85.8716 451.478 84.5491C448.233 83.1131 444.959 81.6771 441.814 79.9396C435.127 76.2461 429.001 71.6188 423.62 66.197C422.959 65.5221 422.299 64.8616 421.653 64.1579C421.581 64.0718 421.466 64.1579 421.538 64.2728C424.007 67.1437 426.695 69.818 429.579 72.2713C432.486 74.6968 435.567 76.9046 438.798 78.8769C441.92 80.7333 445.153 82.3973 448.477 83.8598C451.605 85.1855 454.637 86.7257 457.553 88.4694C460.415 90.1955 462.811 92.5966 464.532 95.4627C466.327 98.6506 467.073 102.269 468.15 105.716C470.251 112.388 473.615 118.594 478.059 123.996C479.179 125.346 480.371 126.653 481.62 127.888C483.023 128.985 484.174 130.371 484.995 131.951C485.288 132.886 485.485 133.849 485.583 134.823C485.741 135.886 485.885 136.934 486.043 137.997C486.359 140.065 486.632 142.147 486.991 144.201C487.177 145.249 487.35 146.297 487.551 147.345C487.551 147.345 487.651 147.345 487.637 147.345C487.278 143.052 486.675 138.772 486.115 134.493Z" fill="#C7C7C7"/>
<path d="M457.983 91.169C453.489 89.6325 448.994 88.0816 444.586 86.301C440.222 84.6025 435.981 82.6066 431.891 80.3272C429.553 79.0277 427.316 77.5541 425.2 75.9187C425.099 75.9187 425.2 75.9187 425.2 75.9187C426.982 77.412 428.852 78.7978 430.8 80.0687C432.83 81.3324 434.907 82.486 437.032 83.5295C441.338 85.5507 445.77 87.2918 450.301 88.7422C452.843 89.6038 455.399 90.4223 457.955 91.2265L457.983 91.169Z" fill="#C7C7C7"/>
<path d="M463.354 98.5932C459.71 96.4878 455.861 94.7604 451.866 93.438C447.874 92.002 443.796 90.9106 439.804 89.5321C437.502 88.7857 435.24 87.923 433.026 86.9473C432.94 86.9473 433.026 86.9473 433.026 86.9473C434.907 87.8519 436.817 88.6992 438.77 89.4315C440.723 90.1639 442.776 90.8675 444.801 91.4994C448.836 92.7918 452.9 94.0267 456.863 95.5489C459.085 96.4075 461.24 97.4299 463.311 98.6076C463.311 98.6076 463.397 98.6219 463.354 98.5932Z" fill="#C7C7C7"/>
<path d="M467.317 107.87C463.998 105.353 460.332 103.331 456.433 101.867C452.347 100.368 448.138 99.2296 443.853 98.4639C441.369 97.9757 438.87 97.588 436.357 97.2146V97.2864C440.665 98.1624 444.973 98.9952 449.281 100.158C453.386 101.2 457.39 102.609 461.243 104.366C463.368 105.361 465.393 106.558 467.289 107.942C467.289 107.942 467.332 107.87 467.317 107.87Z" fill="#C7C7C7"/>
<path d="M469.96 112.666C468.351 111.646 466.729 110.627 465.077 109.665C463.46 108.68 461.771 107.821 460.023 107.094C458.279 106.423 456.469 105.942 454.623 105.658C452.67 105.342 450.689 105.184 448.721 104.983C446.495 104.754 444.27 104.553 442.044 104.337L447.931 105.141C449.841 105.4 451.766 105.615 453.675 105.902C455.554 106.171 457.404 106.608 459.204 107.209C461.01 107.858 462.774 108.616 464.489 109.478C466.37 110.397 468.165 111.532 469.96 112.623C469.96 112.709 469.974 112.68 469.96 112.666Z" fill="#C7C7C7"/>
<path d="M477.14 124.57C475.287 123.479 473.449 122.373 471.654 121.196C469.859 120.018 468.165 118.726 466.327 117.663C462.695 115.627 458.708 114.302 454.58 113.757C452.264 113.429 449.927 113.266 447.587 113.269C451.732 113.547 455.837 114.254 459.836 115.38C461.82 115.959 463.744 116.729 465.58 117.678C467.447 118.654 469.17 119.875 470.936 121.009C472.932 122.302 474.986 123.522 477.097 124.613C477.14 124.613 477.154 124.57 477.14 124.57Z" fill="#C7C7C7"/>
<path d="M475.704 122.287C473.345 120.247 470.812 118.417 468.136 116.816C465.43 115.176 462.537 113.864 459.52 112.91C457.84 112.379 456.117 111.948 454.393 111.575C454.393 111.575 454.393 111.646 454.393 111.661C457.431 112.415 460.392 113.449 463.239 114.748C466.073 115.955 468.801 117.396 471.396 119.056C472.895 120.051 474.334 121.135 475.704 122.302C475.704 122.302 475.718 122.302 475.704 122.287Z" fill="#C7C7C7"/>
<path d="M452.943 95.6638C448.348 93.1365 442.992 92.7918 437.937 91.8153C436.485 91.5476 435.047 91.2073 433.629 90.7958C438.511 92.6482 443.824 92.6339 448.822 94.0124C450.262 94.4028 451.658 94.9418 452.986 95.6207C452.986 95.6207 452.957 95.6638 452.943 95.6638Z" fill="#C7C7C7"/>
<path d="M460.238 91.8153C454.655 88.6012 448.785 85.9138 442.704 83.788C440.981 83.1993 439.258 82.6823 437.535 82.151C437.535 82.151 437.463 82.151 437.535 82.2372C440.637 83.1849 443.681 84.3194 446.697 85.5112C449.712 86.7031 452.555 87.9381 455.413 89.331C457.05 90.1208 458.644 90.9393 460.238 91.8153C460.252 91.8153 460.238 91.844 460.238 91.8153Z" fill="#C7C7C7"/>
<path d="M468.768 110.785C466.995 109.351 465.069 108.118 463.024 107.109C460.956 106.108 458.791 105.324 456.562 104.768C456.562 104.768 456.49 104.768 456.562 104.854C460.992 106.031 465.151 108.054 468.811 110.814C468.811 110.814 468.782 110.799 468.768 110.785Z" fill="#C7C7C7"/>
<path d="M484.234 137.322C482.289 134.495 479.858 132.034 477.054 130.056C474.179 128.065 471.115 126.362 467.906 124.973C466.097 124.168 464.244 123.422 462.392 122.689C462.306 122.689 462.392 122.689 462.392 122.689C465.612 123.986 468.753 125.473 471.798 127.141C474.817 128.764 477.649 130.714 480.241 132.957C481.694 134.249 483.003 135.693 484.147 137.265C484.147 137.265 484.262 137.351 484.234 137.322Z" fill="#C7C7C7"/>
<path d="M557.369 152.802C579.785 148.379 590.713 138.299 596.658 135.57C604.585 132.023 620.036 139.878 633.19 141.745C642.639 143.181 656.41 140.438 656.482 143.296C656.482 144.847 649.158 147.245 649.158 147.245C649.158 147.245 648.77 151.553 639.81 151.553C639.81 151.553 636.464 157.297 627.202 155.344C627.202 155.344 626.125 160.672 618.715 160.198C618.715 160.198 617.279 165.439 608.821 162.51C608.821 162.51 606.164 168.368 599.056 166.085C598.376 166.838 597.548 167.442 596.624 167.859C595.7 168.277 594.699 168.499 593.685 168.512C586.735 169.101 573.581 163.285 560.657 163.888C551.323 164.333 547.619 169.718 546.455 169.13C545.709 168.802 545.121 168.193 544.82 167.435C544.519 166.677 544.529 165.831 544.847 165.08C544.847 165.08 554.526 153.348 557.369 152.802Z" fill="#818181" fill-opacity="0.871"/>
<path d="M555.459 157.182C556.107 156.517 556.83 155.929 557.613 155.43C558.346 155.036 559.144 154.778 559.968 154.669C561.706 154.396 563.501 154.396 565.253 154.181C572.34 153.279 579.175 150.969 585.357 147.389C588.473 145.565 591.316 143.267 594.518 141.645C597.507 140.059 600.858 139.282 604.24 139.39C607.56 139.559 610.847 140.123 614.034 141.07C617.494 141.989 620.898 143.009 624.401 143.712C631.922 145.158 639.61 145.526 647.234 144.804C648.182 144.718 649.115 144.631 650.106 144.502C650.221 144.502 650.235 144.646 650.106 144.674C646.369 145.292 642.591 145.623 638.805 145.665C635.022 145.663 631.244 145.38 627.503 144.818C623.917 144.25 620.368 143.463 616.877 142.463C613.627 141.472 610.311 140.713 606.954 140.194C603.652 139.674 600.273 139.98 597.117 141.084C593.7 142.391 590.813 144.689 587.769 146.642C581.883 150.428 575.319 153.037 568.441 154.324C566.717 154.655 564.965 154.884 563.228 155.042C561.442 154.978 559.664 155.301 558.015 155.99C557.187 156.532 556.417 157.157 555.718 157.857L553.248 159.896C551.682 161.332 550.146 162.768 548.552 164.06L546.111 166.114C546.025 166.114 546.111 166.114 546.111 166.114C549.083 163.012 552.286 160.111 555.459 157.182Z" fill="#C7C7C7"/>
<path d="M604.814 141.917C609.252 143.612 613.689 145.306 618.227 146.757C622.662 148.252 627.197 149.438 631.797 150.304C634.423 150.798 637.082 151.101 639.752 151.208C637.418 151.182 635.088 151.019 632.773 150.72C630.418 150.39 628.078 149.945 625.766 149.384C621.163 148.183 616.645 146.682 612.239 144.89C609.74 143.913 607.256 142.922 604.771 141.889C604.757 141.946 604.786 141.903 604.814 141.917Z" fill="#C7C7C7"/>
<path d="M595.94 144.186C600.079 144.899 604.135 146.029 608.045 147.561C612.009 148.997 615.857 150.792 619.821 152.285C622.075 153.147 624.344 153.994 626.685 154.64C626.685 154.64 626.685 154.726 626.685 154.64C624.646 154.138 622.635 153.563 620.668 152.874C618.701 152.185 616.69 151.438 614.709 150.591C610.788 149.011 606.868 147.345 602.847 145.981C600.592 145.216 598.283 144.621 595.94 144.201C595.94 144.201 595.94 144.172 595.94 144.186Z" fill="#C7C7C7"/>
<path d="M593.786 144.33C593.786 144.33 593.786 144.417 593.786 144.33C593.743 144.316 593.786 144.243 593.786 144.33Z" fill="#C7C7C7"/>
<path d="M586.951 148.767C591.112 148.959 595.223 149.752 599.157 151.122C603.255 152.591 607.219 154.412 611.004 156.565C613.215 157.785 615.383 159.092 617.552 160.399C617.552 160.399 617.552 160.499 617.552 160.47C613.675 158.374 609.797 156.162 605.805 154.339C601.986 152.512 598.012 151.027 593.93 149.902C591.658 149.312 589.336 148.942 586.994 148.796C586.994 148.796 586.936 148.767 586.951 148.767Z" fill="#C7C7C7"/>
<path d="M581.853 150.763C583.734 151.007 585.629 151.251 587.511 151.582C589.388 151.858 591.242 152.28 593.054 152.845C594.822 153.447 596.522 154.237 598.123 155.2C599.817 156.22 601.44 157.354 603.077 158.446C604.944 159.695 606.782 160.973 608.634 162.237C608.634 162.237 608.634 162.337 608.634 162.309L603.594 159.149C601.971 158.115 600.349 157.067 598.697 156.062C597.085 155.059 595.383 154.208 593.614 153.52C591.81 152.861 589.968 152.31 588.099 151.869C586.06 151.381 583.964 151.108 581.882 150.792C581.824 150.792 581.838 150.763 581.853 150.763Z" fill="#C7C7C7"/>
<path d="M568.656 155.301C570.781 155.66 572.892 155.976 575.017 156.22C577.143 156.464 579.325 156.565 581.393 156.924C585.472 157.698 589.369 159.232 592.881 161.447C594.869 162.672 596.764 164.04 598.553 165.54C598.553 165.54 598.553 165.626 598.553 165.54C595.218 163.077 591.632 160.973 587.855 159.264C585.961 158.43 583.989 157.786 581.968 157.34C579.9 156.895 577.803 156.722 575.707 156.464C573.352 156.177 570.997 155.803 568.67 155.286C568.656 155.33 568.656 155.301 568.656 155.301Z" fill="#C7C7C7"/>
<path d="M571.27 154.468C574.402 154.4 577.535 154.607 580.632 155.085C583.74 155.551 586.782 156.385 589.693 157.57C591.338 158.257 592.944 159.033 594.504 159.896C594.504 159.896 594.504 159.982 594.504 159.896C591.681 158.534 588.739 157.433 585.716 156.608C582.758 155.729 579.732 155.1 576.669 154.726C574.895 154.537 573.111 154.456 571.327 154.482L571.27 154.468Z" fill="#C7C7C7"/>
<path d="M605.805 148.595C610.96 149.6 615.326 152.702 619.806 155.243C621.095 155.98 622.423 156.646 623.784 157.239C623.784 157.239 623.784 157.326 623.784 157.239C618.83 155.545 614.766 152.127 610.027 150.059C608.68 149.432 607.269 148.95 605.82 148.623C605.82 148.623 605.791 148.595 605.805 148.595Z" fill="#C7C7C7"/>
<path d="M602.675 140.97C609.011 142.093 615.231 143.794 621.257 146.053C622.951 146.699 624.617 147.403 626.268 148.107C626.268 148.107 626.268 148.207 626.268 148.107C623.281 146.857 620.208 145.78 617.121 144.761C614.034 143.741 611.061 142.865 607.988 142.104C606.236 141.673 604.47 141.271 602.689 140.927C602.646 140.998 602.646 140.97 602.675 140.97Z" fill="#C7C7C7"/>
<path d="M583.964 150.074C586.258 150.12 588.54 150.414 590.77 150.95C593 151.511 595.165 152.3 597.232 153.305C597.232 153.305 597.232 153.391 597.232 153.305C593.075 151.375 588.585 150.263 584.007 150.031C584.007 150.031 583.949 150.074 583.964 150.074Z" fill="#C7C7C7"/>
<path d="M555.1 160.557C558.388 159.624 561.816 159.279 565.224 159.537C568.703 159.842 572.143 160.496 575.491 161.49C577.416 162.036 579.311 162.653 581.235 163.271C581.235 163.271 581.235 163.357 581.235 163.342C577.937 162.283 574.581 161.415 571.183 160.743C567.82 160.06 564.391 159.747 560.959 159.81C559.02 159.868 557.093 160.142 555.215 160.628C555.215 160.628 555.057 160.571 555.1 160.557Z" fill="#C7C7C7"/>
<path d="M537.366 218.269L462.852 195.035L492.677 99.3831L548.006 116.629L561.505 140.84L537.366 218.269Z" fill="#74D3FF"/>
<path opacity="0.4" d="M537.366 218.269L462.852 195.035L492.677 99.3831L548.006 116.629L561.505 140.84L537.366 218.269Z" fill="#818181" fill-opacity="0.871"/>
<path d="M548.006 116.629L561.505 140.84L542.32 134.852L548.006 116.629Z" fill="#74D3FF"/>
<path d="M494.149 120.188L535.58 133.101L536.345 130.647L494.914 117.734L494.149 120.188Z" fill="#818181" fill-opacity="0.871"/>
<path d="M492.217 126.384L533.648 139.296L534.413 136.842L492.982 123.93L492.217 126.384Z" fill="#818181" fill-opacity="0.871"/>
<path d="M490.281 132.597L531.711 145.509L532.476 143.055L491.045 130.143L490.281 132.597Z" fill="#818181" fill-opacity="0.871"/>
<path d="M488.34 138.802L549.047 157.722L549.811 155.268L489.105 136.348L488.34 138.802Z" fill="#818181" fill-opacity="0.871"/>
<path d="M486.462 144.918L547.164 163.848L547.93 161.394L487.227 142.464L486.462 144.918Z" fill="#818181" fill-opacity="0.871"/>
<path d="M484.476 151.183L545.182 170.102L545.947 167.648L485.241 148.729L484.476 151.183Z" fill="#818181" fill-opacity="0.871"/>
<path d="M485.513 156.814L545.92 175.89L546.691 173.448L486.284 154.372L485.513 156.814Z" fill="#818181" fill-opacity="0.871"/>
<path d="M483.597 163.061L544.003 182.137L544.775 179.695L484.368 160.619L483.597 163.061Z" fill="#818181" fill-opacity="0.871"/>
<path d="M478.675 169.791L539.381 188.711L540.146 186.257L479.44 167.337L478.675 169.791Z" fill="#818181" fill-opacity="0.871"/>
<path d="M476.742 175.991L537.448 194.911L538.213 192.456L477.507 173.537L476.742 175.991Z" fill="#818181" fill-opacity="0.871"/>
<path d="M474.87 182.107L535.573 201.037L536.338 198.583L475.635 179.653L474.87 182.107Z" fill="#818181" fill-opacity="0.871"/>
<path d="M472.934 188.306L533.637 207.236L534.402 204.783L473.699 185.852L472.934 188.306Z" fill="#818181" fill-opacity="0.871"/>
<path d="M130.288 647.734L408.872 648.926C476.565 595.794 483.544 517.015 435.266 469.282C406.029 440.404 368.908 446.234 333.568 441.639H333.468C321.161 440.031 309.056 437.159 297.568 431.113C261.18 411.914 240.659 366.637 210.044 328.54C206.224 323.758 202.246 319.12 198.053 314.639C172.88 287.757 122.778 286.881 96.5566 324.691C29.9693 420.688 60.47 563.627 130.288 647.734Z" fill="url(#paint7_linear_1_416)"/>
<path opacity="0.2" d="M130.288 647.734L408.872 648.926C476.565 595.794 483.544 517.015 435.266 469.282C406.029 440.404 368.908 446.234 333.568 441.639H333.468C321.161 440.031 309.056 437.159 297.568 431.113C261.18 411.914 240.659 366.637 210.044 328.54C206.224 323.758 202.246 319.12 198.053 314.639C172.88 287.757 122.778 286.881 96.5566 324.691C29.9693 420.688 60.47 563.627 130.288 647.734Z" fill="black"/>
<path opacity="0.1" d="M124.114 428.012C131.408 542.288 263.406 584.938 345.789 550.703C417.46 520.935 393.995 453.055 333.511 441.639H333.411C321.104 440.031 308.999 437.159 297.511 431.113C261.122 411.914 240.602 366.637 209.986 328.54C164.436 304.831 118.757 344.35 124.114 428.012Z" fill="black"/>
<path d="M621.86 662.338C616.446 662.525 481.448 622.202 477.082 617.248C474.497 614.376 480.658 597.258 482.568 580.5C482.855 577.858 437.592 512.061 437.592 512.061L523.135 491.741L574.515 596.44C574.515 596.44 618.715 634.853 622.922 640.827C627.13 646.801 627.259 662.151 621.86 662.338Z" fill="#C95F50"/>
<path d="M621.788 662.338C616.403 662.525 481.39 622.202 477.025 617.262C474.44 614.318 480.615 597.259 482.51 580.5C482.582 579.797 479.394 574.555 474.684 567.275L562.28 571.712L574.515 596.44C574.515 596.44 618.701 634.853 622.922 640.812C627.144 646.772 627.259 662.151 621.788 662.338Z" fill="#DC4126"/>
<path d="M624.66 663.142C619.304 663.372 479.078 623.207 474.699 618.296C473.018 616.443 476.206 605.372 482.553 580.5L574.457 596.383C574.457 596.383 621.271 635.772 625.493 641.674C629.715 647.576 630.045 662.898 624.66 663.142Z" fill="url(#paint8_linear_1_416)"/>
<path d="M624.272 656.953C600.937 649.644 506.104 622.36 482.482 616.903C482.281 616.903 482.252 616.989 482.482 617.047C505.458 624.801 600.507 651.324 624.215 657.341C624.66 657.47 624.775 657.111 624.272 656.953Z" fill="#263238"/>
<path d="M617.983 634.049C615.388 633.233 612.653 632.964 609.949 633.258C607.245 633.552 604.631 634.403 602.273 635.758C598.017 638.168 594.85 642.121 593.427 646.801C593.427 646.944 593.642 647.03 593.714 646.887C597.692 638.07 608.376 632.383 617.896 634.35C618.083 634.379 618.169 634.106 617.983 634.049Z" fill="#263238"/>
<path d="M583.016 601.337C573.639 598.465 561.778 598.709 553.736 604.726C553.42 604.955 553.736 605.401 554.081 605.329C563.527 603.378 573.155 602.444 582.801 602.543C582.951 602.551 583.099 602.503 583.217 602.41C583.334 602.316 583.414 602.183 583.44 602.035C583.467 601.887 583.438 601.734 583.36 601.606C583.282 601.477 583.16 601.381 583.016 601.337Z" fill="#263238"/>
<path d="M589.421 606.248C580.043 603.376 568.196 603.62 560.141 609.637C559.825 609.867 560.141 610.312 560.485 610.24C569.932 608.289 579.56 607.356 589.205 607.454C589.355 607.462 589.503 607.415 589.621 607.321C589.739 607.227 589.818 607.094 589.845 606.946C589.871 606.798 589.843 606.645 589.765 606.517C589.687 606.388 589.564 606.293 589.421 606.248Z" fill="#263238"/>
<path d="M595.94 611.159C586.577 608.287 574.716 608.531 566.66 614.548C566.358 614.778 566.66 615.223 567.005 615.151C576.451 613.201 586.079 612.267 595.725 612.365C595.875 612.373 596.023 612.326 596.141 612.232C596.258 612.139 596.338 612.005 596.364 611.857C596.391 611.709 596.362 611.556 596.284 611.428C596.206 611.299 596.084 611.204 595.94 611.159Z" fill="#263238"/>
<path d="M602.33 616.07C592.953 613.198 581.092 613.442 573.05 619.459C572.734 619.689 573.05 620.134 573.395 620.062C582.841 618.11 592.469 617.176 602.115 617.276C602.265 617.284 602.413 617.237 602.531 617.143C602.649 617.05 602.728 616.916 602.755 616.768C602.781 616.62 602.753 616.467 602.674 616.339C602.596 616.21 602.474 616.115 602.33 616.07Z" fill="#263238"/>
<path d="M494.86 596.296C484.305 593.295 479.624 609.709 490.207 612.71C500.791 615.711 505.472 599.312 494.86 596.296Z" fill="white"/>
<path d="M600.334 579.208C596.701 573.895 589.593 576.034 585.486 579.294C578.565 585.009 573.258 592.435 570.092 600.834C570.079 600.872 570.074 600.912 570.078 600.952C570.082 600.991 570.095 601.03 570.116 601.064C570.136 601.098 570.164 601.128 570.197 601.15C570.23 601.172 570.268 601.187 570.307 601.193C570.307 601.925 570.954 602.715 571.743 602.428C579.771 599.714 588.688 597.804 595.638 592.721C599.688 589.734 603.766 584.162 600.334 579.208ZM583.102 595.894C579.182 597.33 575.219 598.565 571.37 600.13C574.386 595.937 577.215 591.615 580.661 587.709C582.288 585.805 584.044 584.015 585.917 582.353C588.789 579.825 600.277 574.613 598.338 585.124C597.189 590.84 587.726 594.128 583.016 595.822L583.102 595.894Z" fill="#263238"/>
<path d="M545.68 597.632C553.506 601.236 562.625 601.322 571.04 602.371C571.901 602.486 572.375 601.581 572.232 600.863C572.27 600.851 572.305 600.831 572.335 600.804C572.364 600.776 572.386 600.743 572.4 600.705C572.414 600.667 572.419 600.627 572.415 600.587C572.411 600.547 572.397 600.509 572.375 600.475C567.575 592.833 560.843 586.591 552.86 582.382C548.179 580.012 540.783 579.337 538.299 585.254C535.987 590.868 541.099 595.521 545.68 597.632ZM541.516 590.696C537.466 580.802 549.758 583.631 553.147 585.512C555.313 586.771 557.391 588.177 559.365 589.72C563.398 592.96 567.266 596.402 570.954 600.03C566.861 599.255 562.725 598.852 558.604 598.221C553.693 597.431 543.756 596.095 541.516 590.696Z" fill="#263238"/>
<path d="M549.988 537.191L536.461 544.931L492.806 569.903L468.998 583.516C468.998 583.516 426.492 501.377 406.388 479.334C405.253 478.07 404.019 476.899 402.697 475.83C400.628 474.918 398.408 474.392 396.149 474.279C369.368 471.407 262.515 482.364 200.279 479.119L228.654 439.916L241.248 422.483C311.21 413.623 413.798 382.778 452.828 401.747C495.291 422.368 549.988 537.191 549.988 537.191Z" fill="#37474F"/>
<path d="M536.188 527.914C522.532 535.252 526.351 532.954 512.781 540.436C506.133 544.098 472.702 562.421 467.073 566.858C466.944 566.959 467.073 567.174 467.217 567.131C473.937 564.618 506.965 545.591 513.542 541.8C526.983 534.075 523.049 536.157 536.403 528.287C536.428 528.273 536.449 528.254 536.467 528.232C536.484 528.21 536.497 528.184 536.504 528.157C536.511 528.129 536.513 528.101 536.509 528.073C536.506 528.045 536.497 528.018 536.482 527.993C536.468 527.969 536.449 527.947 536.427 527.93C536.405 527.913 536.379 527.9 536.352 527.893C536.296 527.878 536.238 527.886 536.188 527.914Z" fill="#263238"/>
<path d="M492.85 569.903L468.998 583.516C468.998 583.516 426.492 501.377 406.388 479.334L492.85 569.903Z" fill="#263238"/>
<path d="M477.226 572.114C466.786 555.126 419.14 471.25 409.82 468.033C401.333 465.161 215.529 471.867 213.088 471.91C212.901 471.91 212.887 472.197 213.088 472.183C233.077 471.68 404.406 468.076 408.844 469.756C418.034 473.26 474.9 570.549 476.336 572.574C476.666 573.119 477.585 572.689 477.226 572.114Z" fill="#263238"/>
<path d="M152.417 444.31C152.417 444.31 147.707 495.317 173.857 520.332C205.161 550.258 426.133 538.928 457.639 528.302C489.145 517.675 489.489 466.64 454.767 455.238C421.739 444.396 258.868 440.878 255.393 439.557C251.917 438.236 241.607 422.21 241.607 422.21L152.417 444.31Z" fill="#37474F"/>
<path d="M195.583 442.343C195.583 442.099 195.167 442.185 195.167 442.415C195.256 449.028 193.008 455.461 188.82 460.58C184.038 466.224 176.944 469.455 170.511 472.8C169.893 473.131 170.367 474.093 171.013 473.892C174.978 472.621 178.791 470.922 182.386 468.823C185.683 467.008 188.575 464.54 190.887 461.571C192.961 458.867 194.449 455.761 195.257 452.451C196.066 449.14 196.177 445.698 195.583 442.343Z" fill="#263238"/>
<path d="M253.957 436.398C252.521 434.574 250.898 432.837 249.376 431.056C245.757 426.863 242.196 422.655 238.333 418.606C237.974 418.218 237.299 418.778 237.629 419.195C240.185 422.454 242.885 425.613 245.542 428.787C246.901 430.405 248.27 432.023 249.649 433.641C251.079 435.096 252.363 436.688 253.483 438.394C254.488 440.203 253.224 441.768 251.329 441.998C249.656 442.058 248.022 441.478 246.762 440.376C243.79 438.164 241.42 434.947 238.936 432.219C237.414 430.553 235.887 428.892 234.355 427.236C232.704 425.484 230.966 423.818 229.329 422.081C229.304 422.063 229.273 422.054 229.242 422.055C229.211 422.056 229.181 422.067 229.157 422.086C229.133 422.106 229.115 422.132 229.107 422.163C229.1 422.193 229.102 422.224 229.114 422.253C230.55 424.163 231.885 426.173 233.321 428.098C234.757 430.022 236.193 431.917 237.701 433.842C239.209 435.766 240.573 437.374 242.009 439.083C243.248 440.594 244.728 441.889 246.389 442.917C249.117 444.468 253.827 444.755 255.22 441.251C255.465 440.404 255.477 439.505 255.255 438.651C255.032 437.797 254.584 437.019 253.957 436.398Z" fill="#263238"/>
<path d="M453.302 528.546C442.417 528.891 431.547 529.652 420.662 529.982C409.777 530.312 399.05 530.542 388.237 530.571C366.539 530.571 327.925 531.231 306.213 529.996C284.314 528.761 260.691 526.866 238.922 524.137C228.496 522.816 217.942 521.754 207.646 519.671C198.382 518.035 189.781 513.779 182.86 507.408C168.615 493.938 162.9 473.935 160.416 454.779C160.071 452.208 159.798 449.638 159.554 447.053C159.554 447.019 159.54 446.986 159.516 446.962C159.492 446.937 159.459 446.924 159.425 446.924C159.39 446.924 159.358 446.937 159.333 446.962C159.309 446.986 159.295 447.019 159.295 447.053C160.731 466.697 164.12 487.16 176.685 502.813C181.987 509.648 189.002 514.959 197.019 518.207C206.798 521.983 217.611 522.773 227.908 524.037C249.763 526.722 273.486 528.718 295.4 530.14C317.313 531.562 356.602 531.231 378.759 531.289C400.917 531.346 423.074 530.743 445.174 529.379C447.874 529.226 450.569 529.02 453.259 528.761C453.28 528.754 453.298 528.741 453.312 528.724C453.327 528.707 453.336 528.687 453.341 528.666C453.345 528.644 453.344 528.622 453.337 528.601C453.33 528.58 453.318 528.561 453.302 528.546Z" fill="#263238"/>
<path d="M481.792 480.598C479.614 472.085 474.314 464.704 466.944 459.919C459.046 454.664 449.64 452.337 440.335 451.102C429.824 449.666 419.183 449.063 408.599 448.159C386.916 446.335 348.287 445.804 326.532 444.281C304.777 442.759 258.078 439.729 255.45 439.658C255.235 439.658 255.192 440.031 255.45 440.06C276.401 442.127 295.471 443.879 316.466 445.531C337.46 447.182 375.615 447.785 396.695 449.609C407.226 450.509 417.732 451.433 428.215 452.38C437.937 453.271 447.946 454.132 457.122 457.78C464.977 460.896 472.071 465.994 476.149 473.576C479.964 481.016 481.187 489.516 479.624 497.729C478.274 505.364 474.863 512.485 469.759 518.322C464.861 524.085 458.283 528.172 450.947 530.011C449.023 530.441 446.639 530.772 444.959 531.145C444.83 531.145 444.686 531.461 444.83 531.461C460.511 531.662 474.871 519.973 480.356 505.613C483.373 497.616 483.874 488.888 481.792 480.598Z" fill="#263238"/>
<path d="M222.824 331.713C234.714 352.234 276.416 409.344 307.821 419.309C325.053 424.795 409.375 443.808 421.94 434.143C436.659 422.842 434.203 375.382 423.376 374.047C390.348 369.983 328.313 371.376 313.249 366.709C306.428 364.598 271.605 337.816 233.896 315.558C219.622 307.129 215.156 318.488 222.824 331.713Z" fill="#C95F50"/>
<path d="M251.932 380.939L268.776 334.557C268.776 334.557 248.155 320.757 235.662 314.74C219.148 306.77 212.313 311.035 221.13 331.728C227.032 345.571 251.932 380.939 251.932 380.939Z" fill="#C7C7C7"/>
<path d="M249.247 374.635C251.228 367.714 253.31 360.85 255.694 354.043C256.886 350.654 258.121 347.294 259.413 343.991C260.706 340.688 262.285 337.429 263.592 334.068C263.664 333.882 263.951 334.068 263.879 334.183C262.443 337.472 261.481 340.99 260.246 344.35C259.011 347.71 257.791 351.099 256.584 354.474C254.186 361.238 251.774 368.001 249.534 374.808C249.462 374.951 249.189 374.822 249.247 374.635Z" fill="#263238"/>
<path d="M262.329 352.32L251.932 380.939C251.932 380.939 227.046 345.571 221.144 331.728C218.416 325.338 217.195 320.513 217.267 317.138L262.329 352.32Z" fill="#263238"/>
<path d="M149.473 464.486C149.804 464.816 273.759 435.91 274.893 434.445C276.473 432.391 252.994 339.209 229.186 311.624C223.226 304.731 204.573 305.463 196.316 312.615C155.39 348.012 148.281 463.294 149.473 464.486Z" fill="#EBEBEB"/>
<path fill-rule="evenodd" clip-rule="evenodd" d="M222.91 307.933L193.86 314.984C194.621 314.209 195.382 313.548 196.158 312.83L219.45 307.258C220.619 307.389 221.777 307.615 222.91 307.933ZM227.218 309.929L190.155 318.818C189.581 319.479 189.021 320.125 188.489 320.814L228.697 311.164C228.25 310.707 227.759 310.293 227.233 309.929H227.218ZM230.823 313.692L185.689 324.533C185.215 325.151 184.784 325.783 184.354 326.429L231.857 314.984C231.526 314.582 231.196 314.122 230.837 313.692H230.823ZM233.695 317.626L181.999 330.019C181.611 330.636 181.223 331.254 180.864 331.886L234.542 318.962C234.312 318.531 234.068 318.086 233.695 317.626ZM236.236 321.633L178.926 335.39L177.963 337.228L237.069 323.04L236.236 321.633ZM238.577 325.697L176.212 340.66L175.35 342.455L239.352 327.104C239.094 326.63 238.821 326.156 238.577 325.697ZM240.745 329.789L173.756 345.858C173.498 346.447 173.253 347.036 172.981 347.639L241.42 331.196L240.745 329.789ZM242.785 333.91L171.616 350.985C171.372 351.573 171.142 352.148 170.913 352.751L243.474 335.346C243.258 334.844 243.029 334.37 242.785 333.91ZM244.752 338.061L169.635 356.097C169.405 356.671 169.19 357.26 168.988 357.834L245.412 339.497C245.183 339.008 244.982 338.534 244.752 338.061ZM246.619 342.225L167.825 361.151C167.61 361.726 167.409 362.315 167.237 362.889L247.25 343.704C246.992 343.187 246.834 342.699 246.619 342.268V342.225ZM248.414 346.418L166.131 366.177C165.944 366.752 165.757 367.312 165.585 367.901L249.002 347.868C248.816 347.38 248.6 346.892 248.428 346.418H248.414ZM250.137 350.626L164.58 371.175L164.063 372.898L250.711 352.076C250.525 351.588 250.324 351.114 250.137 350.626ZM251.803 354.934L163.144 376.201C162.986 376.789 162.814 377.349 162.656 377.924L252.363 356.384C252.176 355.824 252.004 355.35 251.803 354.862V354.934ZM253.411 359.155L161.794 381.04C161.636 381.6 161.493 382.174 161.349 382.749L253.957 360.491C253.784 360.046 253.598 359.5 253.411 359.084V359.155ZM254.976 363.392L160.545 385.994C160.416 386.554 160.272 387.114 160.143 387.674L255.507 364.784C255.335 364.296 255.148 363.808 254.976 363.32V363.392ZM256.498 367.7L159.396 390.891C159.252 391.446 159.123 392.006 159.008 392.571L257.044 369.049L256.498 367.7ZM257.934 372.008L158.218 395.931C158.089 396.491 157.974 397.066 157.845 397.626L258.48 373.329C258.336 372.826 258.164 372.338 257.992 371.85L257.934 372.008ZM259.37 376.316L157.199 400.857C157.084 401.417 156.969 401.963 156.869 402.523L259.916 377.608C259.772 377.105 259.614 376.603 259.428 376.115L259.37 376.316ZM260.806 380.624L156.294 405.452C156.194 406.012 156.079 406.572 155.978 407.118L261.352 381.887L260.806 380.624ZM262.242 384.932L155.404 410.334C155.303 410.894 155.189 411.454 155.117 412L262.673 386.152C262.53 385.678 262.372 385.19 262.228 384.687L262.242 384.932ZM263.578 389.24L154.571 415.418C154.485 415.964 154.384 416.524 154.313 417.069L264.023 390.733C263.865 389.972 263.707 389.484 263.563 388.967L263.578 389.24ZM264.885 393.548L153.796 419.956C153.695 420.516 153.609 421.061 153.523 421.607L265.315 394.783C265.172 394.294 265.028 393.792 264.87 393.289L264.885 393.548ZM266.163 397.856L153.078 424.982C152.991 425.542 152.92 426.087 152.833 426.633L266.608 399.349C266.435 398.602 266.292 398.114 266.148 397.611L266.163 397.856ZM267.383 402.164L152.403 429.763C152.331 430.324 152.245 430.869 152.173 431.415L267.814 403.657C267.685 402.925 267.541 402.436 267.369 401.919L267.383 402.164ZM268.618 406.472L151.771 434.517C151.771 435.077 151.642 435.608 151.57 436.154L269.035 407.965C268.877 407.261 268.747 406.759 268.604 406.256L268.618 406.472ZM269.781 410.78L151.196 439.054C151.196 439.6 151.067 440.16 151.01 440.706L270.198 412.101C270.054 411.612 269.968 411.095 269.767 410.593L269.781 410.78ZM270.93 415.088L150.694 443.966C150.694 444.526 150.593 445.071 150.536 445.588L271.303 416.595C271.174 415.949 271.045 415.504 270.916 414.93L270.93 415.088ZM272.021 419.396L150.22 448.532L150.091 450.169L272.366 420.803C272.266 420.3 272.136 419.812 272.007 419.281L272.021 419.396ZM273.07 423.704L149.847 453.285C149.847 453.845 149.76 454.391 149.746 454.922L273.414 425.226C273.285 424.68 273.185 424.12 273.055 423.646L273.07 423.704ZM274.032 428.112L149.545 457.995C149.545 458.555 149.545 459.101 149.459 459.604L274.391 429.62C274.276 429.089 274.118 428.6 274.018 428.055L274.032 428.112ZM274.836 432.535L149.344 462.605C149.344 463.352 149.344 463.868 149.344 464.184L274.922 434.028C274.915 433.51 274.882 432.992 274.822 432.478L274.836 432.535Z" fill="url(#paint9_linear_1_416)"/>
<path d="M223.901 333.307C218.258 334.025 205.592 324.418 200.25 315.874C199.891 315.286 200.451 308.867 200.753 301.012C200.925 296.259 200.997 290.96 200.753 286.106L231.569 291.721C230.202 297.884 229.594 304.192 229.76 310.504C229.809 311.172 229.915 311.835 230.076 312.485C230.11 312.588 230.134 312.694 230.148 312.801C230.909 316.549 232.747 332.216 223.901 333.307Z" fill="#C95F50"/>
<path d="M230.004 312.485C230.034 312.594 230.058 312.704 230.076 312.816C229.048 313.012 228.006 313.128 226.96 313.16C209.656 313.763 204.199 292.956 202.95 286.508L231.555 291.721C230.171 297.883 229.54 304.19 229.674 310.504C229.736 311.171 229.846 311.834 230.004 312.485Z" fill="#263238"/>
<path d="M224.576 331.914C218.961 332.69 206.267 323.212 200.882 314.682C200.509 314.094 201.026 307.689 201.27 299.863C201.399 295.11 201.428 289.811 201.112 285L231.885 290.371C230.551 296.5 229.972 302.769 230.162 309.039C230.212 309.704 230.328 310.363 230.507 311.006C230.507 311.107 230.507 311.207 230.507 311.337C231.426 315.171 233.379 330.78 224.576 331.914Z" fill="#C95F50"/>
<path d="M230.507 311.136C230.507 311.222 230.507 311.322 230.507 311.451C229.48 311.659 228.438 311.783 227.391 311.825C210.159 312.557 204.573 291.85 203.266 285.445L231.813 290.428C230.487 296.559 229.908 302.827 230.09 309.096C230.171 309.787 230.31 310.469 230.507 311.136Z" fill="#263238"/>
<path d="M195.296 252.36C193.659 263.489 203.912 293.387 212.528 299.087C224.993 307.373 243.1 305.621 249.548 291.161C255.795 277.145 241.751 238.431 232.316 233.477C218.473 226.182 197.68 236.004 195.296 252.36Z" fill="#C95F50"/>
<path d="M219.579 261.134C220.397 260.631 221.087 260.028 221.848 259.454C222.727 258.973 223.423 258.216 223.829 257.3C223.903 256.987 223.869 256.658 223.734 256.367C223.599 256.075 223.369 255.837 223.083 255.692C222.477 255.481 221.826 255.436 221.197 255.563C220.568 255.689 219.985 255.981 219.507 256.41C218.4 257.122 217.601 258.224 217.267 259.497C217.208 259.791 217.236 260.095 217.347 260.374C217.458 260.652 217.647 260.893 217.892 261.066C218.136 261.239 218.426 261.337 218.725 261.35C219.024 261.362 219.321 261.287 219.579 261.134Z" fill="#263238"/>
<path d="M240.185 254.988C239.238 255.117 238.333 255.074 237.313 255.117C236.335 255.289 235.327 255.138 234.441 254.686C234.19 254.49 234.011 254.215 233.933 253.906C233.855 253.596 233.882 253.27 234.011 252.978C234.346 252.432 234.821 251.985 235.386 251.685C235.952 251.384 236.587 251.241 237.227 251.269C238.536 251.129 239.85 251.476 240.918 252.245C241.147 252.436 241.316 252.689 241.406 252.973C241.496 253.258 241.503 253.562 241.426 253.85C241.35 254.138 241.192 254.399 240.972 254.6C240.752 254.802 240.479 254.936 240.185 254.988Z" fill="#263238"/>
<path d="M228.324 284.325C228.92 284.784 229.655 285.022 230.406 285C231.158 284.751 231.848 284.345 232.431 283.808C232.431 283.808 232.575 283.808 232.546 283.88C232.38 284.371 232.083 284.808 231.689 285.144C231.295 285.48 230.817 285.703 230.306 285.79C229.858 285.808 229.415 285.693 229.032 285.461C228.649 285.228 228.343 284.888 228.152 284.483C228.066 284.368 228.209 284.282 228.324 284.325Z" fill="#263238"/>
<path d="M228.568 277.648C229.329 278.299 230.218 278.783 231.178 279.07C232.137 279.357 233.146 279.44 234.14 279.314C235.01 279.216 235.861 278.994 236.667 278.653C236.826 278.601 236.98 278.534 237.127 278.452C237.271 278.397 237.41 278.33 237.543 278.251C237.646 278.195 237.727 278.108 237.777 278.002C237.826 277.896 237.839 277.777 237.816 277.662C237.793 277.593 237.765 277.526 237.73 277.461V277.289C237.285 275.709 236.394 273.369 236.394 273.369C237.055 273.484 240.372 273.9 240.085 273.096C237.586 266.447 234.815 259.052 230.938 252.992C230.911 252.951 230.87 252.922 230.823 252.909C230.777 252.896 230.727 252.901 230.683 252.922C230.639 252.943 230.605 252.979 230.585 253.023C230.566 253.068 230.564 253.118 230.579 253.164C232.718 259.641 235.992 265.7 238.247 272.177C237.061 272.011 235.857 272.011 234.671 272.177C234.47 272.306 236.466 276.657 236.61 277.375V277.461C234.082 278.61 231.857 278.423 228.755 277.461C228.511 277.275 228.396 277.461 228.568 277.648Z" fill="#263238"/>
<path d="M235.504 278.079C234.985 279.462 234.12 280.688 232.991 281.64C232.359 282.132 231.593 282.422 230.794 282.473C229.042 282.473 228.539 281.037 228.439 279.701C228.393 278.971 228.436 278.238 228.568 277.519C230.761 278.441 233.192 278.637 235.504 278.079Z" fill="#263238"/>
<path d="M232.991 281.64C232.359 282.132 231.593 282.422 230.794 282.473C229.042 282.473 228.539 281.037 228.439 279.701C229.305 279.463 230.226 279.525 231.053 279.877C231.88 280.229 232.563 280.85 232.991 281.64Z" fill="#FF9ABB"/>
<path d="M225.725 264.724C225.725 264.652 225.596 264.868 225.624 264.939C226.242 266.964 226.615 269.391 224.964 270.569C224.964 270.569 224.964 270.712 224.964 270.683C227.175 269.678 226.644 266.476 225.725 264.724Z" fill="#263238"/>
<path d="M223.327 263.03C219.981 263.69 221.532 270.339 224.633 269.736C227.735 269.133 226.127 262.484 223.327 263.03Z" fill="#263238"/>
<path d="M237.529 261.077C237.529 260.99 237.701 261.077 237.73 261.22C238.118 263.302 238.922 265.614 240.946 265.873C240.946 265.873 241.033 265.988 240.946 266.002C238.606 266.16 237.572 263.101 237.529 261.077Z" fill="#263238"/>
<path d="M238.879 258.506C242.138 257.515 243.89 264.107 240.875 265.026C237.859 265.945 236.15 259.339 238.879 258.506Z" fill="#263238"/>
<path d="M202.304 283.607C203.984 283.191 204.673 276.829 205.563 276.427C206.454 276.025 207.746 274.704 207.746 274.001C207.746 273.297 204.874 262.513 204.601 256.682C204.328 250.852 208.435 244.907 213.978 243.873C219.521 242.839 224.03 246.975 227.707 245.51C231.383 244.046 231.684 239.766 234.24 239.766C236.796 239.766 240.114 243.227 241.865 246.659C238.735 240.111 235.289 235.171 232.273 233.505C218.444 226.225 196.847 234.08 194.42 250.522C193.444 257.199 197.608 272.665 202.304 283.607Z" fill="#263238"/>
<path d="M225.107 277.346C223.437 277.704 221.7 277.585 220.093 277.005C218.486 276.424 217.075 275.405 216.019 274.062C214.962 272.719 214.304 271.107 214.118 269.409C213.932 267.711 214.227 265.994 214.967 264.455C215.708 262.916 216.866 261.615 218.309 260.701C219.752 259.786 221.423 259.295 223.131 259.283C224.839 259.27 226.517 259.737 227.973 260.631C229.429 261.524 230.605 262.808 231.368 264.336C231.991 265.583 232.32 266.956 232.33 268.349C232.34 269.743 232.031 271.12 231.427 272.376C230.822 273.632 229.939 274.732 228.843 275.594C227.748 276.455 226.47 277.055 225.107 277.346ZM221.517 260.66C220.871 260.805 220.244 261.027 219.651 261.321C217.856 262.223 216.472 263.775 215.781 265.661C215.091 267.548 215.145 269.626 215.932 271.474C216.72 273.322 218.182 274.801 220.021 275.608C221.861 276.416 223.939 276.493 225.832 275.823C227.726 275.153 229.293 273.786 230.215 272.001C231.137 270.217 231.344 268.148 230.794 266.215C230.244 264.283 228.979 262.633 227.256 261.601C225.532 260.569 223.48 260.233 221.517 260.66Z" fill="#74D3FF"/>
<path d="M244.493 270.569C241.033 271.143 237.313 268.127 236.007 263.546C235.343 261.366 235.373 259.032 236.093 256.869C236.36 255.932 236.861 255.078 237.549 254.388C238.237 253.697 239.089 253.193 240.026 252.923C240.962 252.653 241.952 252.626 242.902 252.844C243.852 253.062 244.73 253.518 245.455 254.169C247.221 255.612 248.491 257.57 249.089 259.77C250.525 264.623 248.672 269.405 245.068 270.439C244.88 270.496 244.688 270.539 244.493 270.569ZM240.803 253.954C240.652 253.974 240.503 254.007 240.358 254.055C239.618 254.306 238.95 254.73 238.408 255.292C237.866 255.854 237.466 256.538 237.242 257.286C236.622 259.209 236.622 261.278 237.242 263.202C238.448 267.395 241.822 270.123 244.795 269.262C247.767 268.4 249.103 264.308 247.968 260.114C247.441 258.163 246.322 256.422 244.766 255.132C244.226 254.666 243.594 254.321 242.911 254.118C242.228 253.915 241.509 253.859 240.803 253.954Z" fill="#74D3FF"/>
<path d="M231.411 265.442L230.378 264.81C231.311 263.259 233.838 260.746 236.725 262.283L236.15 263.36C233.565 261.981 231.498 265.298 231.411 265.442Z" fill="#74D3FF"/>
<path d="M193.63 280.822L192.424 280.635C192.51 280.075 193.314 275.092 195.756 273.8C198.197 272.507 214.036 268.745 214.711 268.587L214.998 269.779C210.417 270.87 198.096 273.929 196.33 274.877C194.564 275.824 193.86 279.457 193.63 280.822Z" fill="#74D3FF"/>
<path d="M205.606 276.427C205.606 276.427 196.99 267.696 192.912 270.942C188.834 274.187 196.502 287.657 202.117 288.705C202.827 288.892 203.567 288.934 204.293 288.827C205.019 288.72 205.716 288.467 206.341 288.083C206.967 287.699 207.508 287.192 207.932 286.593C208.356 285.994 208.654 285.316 208.809 284.598L205.606 276.427Z" fill="#C95F50"/>
<path d="M195.196 274.776C195.176 274.776 195.158 274.784 195.145 274.797C195.131 274.81 195.124 274.829 195.124 274.848C195.124 274.867 195.131 274.885 195.145 274.899C195.158 274.912 195.176 274.92 195.196 274.92C199.159 275.781 201.686 278.883 203.668 282.214C203.386 281.882 203.035 281.614 202.64 281.431C202.244 281.248 201.813 281.153 201.377 281.153C200.942 281.153 200.511 281.248 200.115 281.431C199.72 281.614 199.369 281.882 199.087 282.214C199.087 282.301 199.087 282.43 199.231 282.401C199.845 282.079 200.545 281.958 201.233 282.053C201.92 282.148 202.561 282.456 203.065 282.932C203.898 283.73 204.649 284.611 205.305 285.56C205.535 285.862 206.095 285.56 205.908 285.23V285.144C205.147 280.333 200.351 274.36 195.196 274.776Z" fill="#263238"/>
<path d="M179.112 340.401C162.325 393.863 166.303 436.068 174.934 442.357C198.182 459.288 261.883 439.413 279.561 436.125C286.741 434.789 262.329 378.312 254.89 380.624C237.414 386.095 212.643 396.003 211.724 395.788C209.9 395.357 209.556 381.112 205.305 339.152C201.859 305.205 185.976 318.545 179.112 340.401Z" fill="#C95F50"/>
<path d="M344.281 365.933C345.1 373.027 327.422 373.558 327.422 373.558C330.164 374.959 332.329 377.276 333.54 380.107C335.435 385.204 328.298 390.403 328.298 390.403C330.834 392.455 332.695 395.221 333.64 398.344C334.976 403.398 328.514 409.688 328.514 409.688C329.81 412.861 329.918 416.395 328.815 419.64C325.541 428.184 311.583 429.893 303.111 432.664C294.064 435.622 279.776 435.278 272.955 437.331L251.874 382.979C251.874 382.979 282.332 358.136 298.185 355.695C307.031 354.388 343.032 355.077 344.281 365.933Z" fill="#C95F50"/>
<path d="M327.25 373.372C317.672 371.692 307.72 372.309 298.114 373.013C298.068 373.013 298.024 373.031 297.992 373.063C297.959 373.096 297.941 373.139 297.941 373.185C297.941 373.231 297.959 373.275 297.992 373.307C298.024 373.339 298.068 373.357 298.114 373.357C307.649 372.539 317.643 374.262 327.207 373.831C327.268 373.837 327.329 373.818 327.376 373.779C327.423 373.74 327.453 373.684 327.458 373.623C327.464 373.562 327.445 373.501 327.406 373.454C327.367 373.407 327.311 373.377 327.25 373.372Z" fill="#263238"/>
<path d="M327.954 389.656C325.741 389.489 323.516 389.609 321.334 390.015C319.007 390.302 316.681 390.632 314.369 391.006C309.717 391.738 305.093 392.571 300.483 393.533C300.282 393.533 300.296 393.907 300.483 393.863C305.121 393.145 309.76 392.427 314.412 391.982C316.753 391.709 319.079 391.48 321.42 391.25C323.635 391.173 325.836 390.855 327.982 390.302C328.047 390.275 328.103 390.228 328.14 390.169C328.178 390.109 328.197 390.04 328.193 389.969C328.19 389.899 328.166 389.831 328.123 389.775C328.08 389.719 328.021 389.677 327.954 389.656Z" fill="#263238"/>
<path d="M328.313 409.76C326.309 409.628 324.298 409.841 322.368 410.392C320.257 410.765 318.146 411.139 316.035 411.483C311.813 412.201 307.577 412.919 303.326 413.465C303.125 413.465 303.154 413.824 303.326 413.795C307.634 413.249 311.942 412.761 316.25 412.172L322.612 411.282C324.566 411.179 326.486 410.732 328.284 409.961C328.304 409.954 328.321 409.942 328.334 409.926C328.347 409.909 328.356 409.89 328.359 409.869C328.362 409.848 328.359 409.827 328.351 409.808C328.343 409.789 328.33 409.772 328.313 409.76Z" fill="#263238"/>
<path d="M211.724 395.788L222.365 391.58L233.077 387.531L243.833 383.654L249.247 381.772C251.079 381.109 252.949 380.553 254.847 380.107L254.574 380.221C261.079 375.468 267.656 370.844 274.477 366.594C277.895 364.469 281.341 362.401 284.917 360.534C286.697 359.615 288.507 358.739 290.374 357.949C292.214 357.136 294.141 356.534 296.118 356.154C294.162 356.608 292.264 357.283 290.46 358.165C288.65 359.026 286.884 359.96 285.147 360.95C281.657 362.932 278.254 365.043 274.894 367.24C268.216 371.677 261.611 376.244 255.206 381.04L255.12 381.112H254.933C253.253 381.471 251.357 382.174 249.577 382.734L244.12 384.601L233.336 388.364L222.58 392.112L211.724 395.788Z" fill="#263238"/>
<path d="M163.604 386.784L210.202 370.528C210.202 370.528 207.861 345.829 204.644 332.36C200.336 314.51 192.754 311.911 182.286 331.814C175.293 345.14 163.604 386.784 163.604 386.784Z" fill="#C7C7C7"/>
<path d="M166.791 380.71C173.411 377.838 180.046 375.138 186.824 372.697C190.198 371.476 193.602 370.313 197.005 369.193C200.408 368.073 203.955 367.312 207.344 366.149C207.531 366.149 207.617 366.393 207.43 366.45C203.984 367.427 200.652 368.891 197.263 370.055C193.874 371.218 190.471 372.41 187.096 373.63C180.347 376.043 173.569 378.441 166.878 380.997C166.691 381.04 166.576 380.781 166.791 380.71Z" fill="#263238"/>
<path d="M169.175 384.831C167.366 385.606 165.528 386.267 163.69 387.042L163.187 387.244L163.331 386.698C164.106 383.74 164.853 380.753 165.729 377.823C166.605 374.894 167.409 371.921 168.357 369.006C169.304 366.091 170.195 363.162 171.229 360.275C172.263 357.389 173.282 354.531 174.445 351.659C173.641 354.618 172.794 357.561 171.932 360.505C171.071 363.449 170.195 366.378 169.333 369.308C168.472 372.237 167.538 375.167 166.648 378.096C165.758 381.026 164.795 383.926 163.876 386.856L163.517 386.511C165.399 385.937 167.28 385.348 169.175 384.831Z" fill="#263238"/>
<path d="M171.257 357.375C171.171 358.811 170.956 360.247 170.755 361.597C170.554 362.946 170.267 364.382 169.893 365.747C169.979 364.311 170.195 362.875 170.396 361.539C170.597 360.204 170.884 358.753 171.257 357.375Z" fill="#263238"/>
<path d="M204.515 372.51C204.989 372.252 209.713 370.414 210.101 370.385C209.742 367.513 209.369 364.641 209.053 361.769C208.895 360.333 208.751 358.897 208.651 357.461C208.55 356.025 208.292 354.043 208.191 352.622C208.184 352.598 208.182 352.573 208.186 352.548C208.19 352.524 208.2 352.501 208.215 352.481C208.229 352.461 208.249 352.445 208.271 352.434C208.293 352.422 208.317 352.417 208.342 352.417C208.367 352.417 208.391 352.422 208.413 352.434C208.435 352.445 208.455 352.461 208.469 352.481C208.484 352.501 208.494 352.524 208.498 352.548C208.502 352.573 208.5 352.598 208.493 352.622C208.809 354.46 208.995 355.824 209.268 357.418C209.541 359.012 209.728 360.29 209.9 361.726C210.273 364.741 210.819 367.929 211.049 370.959C208.939 371.759 206.775 372.407 204.573 372.898C204.486 372.697 204.443 372.553 204.515 372.51Z" fill="#263238"/>
<path d="M210.388 354.79C210.396 355.674 210.338 356.557 210.216 357.432C210.114 358.306 209.942 359.171 209.699 360.017C209.697 358.252 209.929 356.494 210.388 354.79Z" fill="#263238"/>
<path d="M259.585 437.072L259.559 442.83L387.936 443.412L387.962 437.654L259.585 437.072Z" fill="#C7C7C7"/>
<path d="M287.071 437.231L282.662 442.96L387.964 443.449L387.993 437.69L287.071 437.231Z" fill="#A6A6A6"/>
<path d="M292.542 443.003L417.661 443.578L428.459 358.653L303.355 358.078L292.542 443.003Z" fill="#818181" fill-opacity="0.871"/>
<path d="M352.883 400.799C352.858 401.794 353.032 402.783 353.395 403.709C353.759 404.635 354.304 405.478 354.998 406.19C355.693 406.902 356.523 407.468 357.44 407.854C358.356 408.24 359.341 408.439 360.335 408.439C362.364 408.443 364.314 407.654 365.768 406.24C367.223 404.826 368.066 402.899 368.119 400.871C368.145 399.876 367.973 398.885 367.61 397.957C367.248 397.03 366.703 396.184 366.008 395.471C365.313 394.757 364.483 394.19 363.565 393.803C362.647 393.416 361.662 393.217 360.666 393.217C358.637 393.22 356.689 394.014 355.236 395.429C353.783 396.845 352.939 398.771 352.883 400.799Z" fill="white"/>
<path d="M427.411 366.867C432.092 374.176 443.695 382.734 445.261 388.981C445.707 390.507 445.65 392.136 445.096 393.627C444.542 395.117 443.522 396.389 442.187 397.252C442.187 397.252 448.922 399.608 449.367 405.509C449.612 408.554 445.059 411.627 445.059 411.627C445.059 411.627 450.373 413.752 450.488 419.037C450.574 423.244 445.921 425.685 445.921 425.685C445.921 425.685 450.071 430.094 448.793 434.416C446.194 443.161 410.366 447.742 403.143 435.235C399.782 429.419 408.585 428.773 408.585 428.773C408.585 428.773 395.661 426.633 394.57 419.266C393.478 411.9 404.952 411.77 404.952 411.77C404.952 411.77 392.473 409.588 392.028 401.833C391.597 393.763 403.128 395.587 403.128 395.587C403.128 395.587 394.512 391.207 395.532 385.19C397.269 375.282 417.646 385.922 425.271 383.05L427.411 366.867Z" fill="#C95F50"/>
<path d="M445.16 426.188C445.183 426.188 445.205 426.197 445.221 426.213C445.237 426.229 445.246 426.251 445.246 426.274C445.246 426.297 445.237 426.319 445.221 426.335C445.205 426.351 445.183 426.36 445.16 426.36C433.744 430.74 419.858 432.104 407.968 428.873C407.58 428.758 407.58 428.083 407.968 428.112C420.393 429.28 432.922 428.632 445.16 426.188Z" fill="#263238"/>
<path d="M445.16 411.684C445.185 411.693 445.207 411.71 445.223 411.731C445.238 411.753 445.247 411.779 445.247 411.806C445.247 411.833 445.238 411.859 445.223 411.881C445.207 411.903 445.185 411.92 445.16 411.928C433.356 416.38 417.675 417.414 404.406 412.144C403.947 411.971 403.731 411.34 404.263 411.512C413.453 414.355 433.787 414.14 445.16 411.684Z" fill="#263238"/>
<path d="M402.267 394.897C415.191 399.464 428.273 399.435 441.714 397.468C441.886 397.468 441.9 397.683 441.714 397.741C435.41 400.498 426.722 400.857 419.929 400.613C413.627 400.461 407.474 398.664 402.08 395.4C401.893 395.228 401.994 394.797 402.267 394.897Z" fill="#263238"/>
<defs>
<linearGradient id="paint0_linear_1_416" x1="408.854" y1="353.484" x2="611.705" y2="383.952" gradientUnits="userSpaceOnUse">
<stop stop-color="#F1CF17" stop-opacity="0.223958"/>
<stop offset="0.166667" stop-color="#570DE3" stop-opacity="0.25"/>
<stop offset="0.585938" stop-color="#74D3FF" stop-opacity="0.627344"/>
<stop offset="1" stop-color="#74D3FF"/>
</linearGradient>
<linearGradient id="paint1_linear_1_416" x1="606.849" y1="444.042" x2="656.603" y2="444.042" gradientUnits="userSpaceOnUse">
<stop stop-color="#DC4126"/>
<stop offset="1" stop-color="#E70DF8" stop-opacity="0"/>
</linearGradient>
<linearGradient id="paint2_linear_1_416" x1="382.859" y1="350.583" x2="513.123" y2="415.13" gradientUnits="userSpaceOnUse">
<stop stop-color="#F1CF17" stop-opacity="0.223958"/>
<stop offset="0.166667" stop-color="#570DE3" stop-opacity="0.25"/>
<stop offset="0.585938" stop-color="#74D3FF" stop-opacity="0.627344"/>
<stop offset="1" stop-color="#74D3FF"/>
</linearGradient>
<linearGradient id="paint3_linear_1_416" x1="289.402" y1="144.894" x2="410.75" y2="189.331" gradientUnits="userSpaceOnUse">
<stop stop-color="#F1CF17" stop-opacity="0.223958"/>
<stop offset="0.166667" stop-color="#570DE3" stop-opacity="0.25"/>
<stop offset="0.585938" stop-color="#74D3FF" stop-opacity="0.627344"/>
<stop offset="1" stop-color="#74D3FF"/>
</linearGradient>
<linearGradient id="paint4_linear_1_416" x1="339.014" y1="171.263" x2="429.752" y2="171.263" gradientUnits="userSpaceOnUse">
<stop stop-color="#DC4126"/>
<stop offset="1" stop-color="#E70DF8" stop-opacity="0"/>
</linearGradient>
<linearGradient id="paint5_linear_1_416" x1="370.063" y1="133.833" x2="398.729" y2="154.909" gradientUnits="userSpaceOnUse">
<stop stop-color="#F1CF17" stop-opacity="0.223958"/>
<stop offset="0.166667" stop-color="#570DE3" stop-opacity="0.25"/>
<stop offset="0.585938" stop-color="#74D3FF" stop-opacity="0.627344"/>
<stop offset="1" stop-color="#74D3FF"/>
</linearGradient>
<linearGradient id="paint6_linear_1_416" x1="-107.352" y1="646.032" x2="-55.2892" y2="841.113" gradientUnits="userSpaceOnUse">
<stop stop-color="#F1CF17" stop-opacity="0.223958"/>
<stop offset="0.166667" stop-color="#570DE3" stop-opacity="0.25"/>
<stop offset="0.585938" stop-color="#74D3FF" stop-opacity="0.627344"/>
<stop offset="1" stop-color="#74D3FF"/>
</linearGradient>
<linearGradient id="paint7_linear_1_416" x1="95.8388" y1="472.451" x2="521.42" y2="472.451" gradientUnits="userSpaceOnUse">
<stop stop-color="#DC4126"/>
<stop offset="1" stop-color="#E70DF8" stop-opacity="0"/>
</linearGradient>
<linearGradient id="paint8_linear_1_416" x1="488.036" y1="621.903" x2="649.538" y2="621.903" gradientUnits="userSpaceOnUse">
<stop stop-color="#DC4126"/>
<stop offset="1" stop-color="#E70DF8" stop-opacity="0"/>
</linearGradient>
<linearGradient id="paint9_linear_1_416" x1="101.659" y1="331.462" x2="278.326" y2="370.953" gradientUnits="userSpaceOnUse">
<stop stop-color="#F1CF17" stop-opacity="0.223958"/>
<stop offset="0.166667" stop-color="#570DE3" stop-opacity="0.25"/>
<stop offset="0.585938" stop-color="#74D3FF" stop-opacity="0.627344"/>
<stop offset="1" stop-color="#74D3FF"/>
</linearGradient>
</defs>
</svg>
